<?xml version="1.0" encoding="UTF-8" standalone="no"?>
<svg
   viewBox="0 0 153.6 143.99999"
   version="1.1"
   id="svg1094"
   sodipodi:docname="Spork's face.svg"
   inkscape:export-filename="/home/paulhanzlik/Desktop/pjhanzlik.gitlab.io/public/tribute page/apple-touch-icon.png"
   inkscape:export-xdpi="18.431999"
   inkscape:export-ydpi="18.431999"
   inkscape:version="1.1.1 (3bf5ae0d25, 2021-09-20)"
   width="153.60001"
   height="144"
   xmlns:inkscape="http://www.inkscape.org/namespaces/inkscape"
   xmlns:sodipodi="http://sodipodi.sourceforge.net/DTD/sodipodi-0.dtd"
   xmlns="http://www.w3.org/2000/svg"
   xmlns:svg="http://www.w3.org/2000/svg"
   xmlns:rdf="http://www.w3.org/1999/02/22-rdf-syntax-ns#"
   xmlns:cc="http://creativecommons.org/ns#"
   xmlns:dc="http://purl.org/dc/elements/1.1/">
  <title
     id="title829">Face of Spork, JoCat's Bidoof</title>
  <path
     fill="#af7f4f"
     d="m 73.53329,134.93217 2.303854,2.87868 a 24.190469,24.180893 0 0 0 12.287222,5.75735 c 2.303854,0.57574 4.223732,0.57574 6.143611,0 a 18.046857,18.039713 0 0 0 10.943303,-7.67647 c 0.95994,-1.5353 1.15193,-2.49486 1.15193,-3.07059 0,-0.76765 -0.38397,-0.95956 -1.15193,-1.5353 l -1.5359,-0.95956 3.26379,1.91912 c 1.53591,0.57574 2.87982,0.95956 4.22374,0.95956 1.34391,0 2.68783,0 4.41572,-0.38382 1.91988,-0.38383 4.22373,-0.95956 5.95162,-1.91912 1.91988,-0.95956 2.87982,-2.11103 4.03175,-4.03015 a 26.494323,26.483835 0 0 0 2.87981,-12.09045 c 0,-1.53529 -0.19198,-2.30294 0.19199,-2.68676 h 3.64777 c 1.91988,0 4.22373,-0.57574 6.14361,-1.34339 2.11187,-0.76764 3.83976,-1.91911 5.37566,-3.83823 1.53591,-1.91912 3.07181,-4.60589 3.64777,-6.90883 0.76795,-2.302942 0.76795,-4.222062 0.38398,-6.333093 -0.38398,-2.111031 -1.15193,-4.413972 -1.91988,-5.949266 -0.76796,-1.727207 -1.5359,-2.686768 -2.11187,-3.454415 -0.76795,-0.575734 -1.15193,-0.959559 -0.95994,-1.151471 l 2.49585,-0.383824 a 13.439149,13.43383 0 0 0 7.67951,-7.484561 c 0.57596,-1.727207 0.76795,-3.262502 0.38397,-4.989709 -0.38397,-1.919116 -1.5359,-4.222062 -2.68783,-5.757354 -0.95994,-1.727207 -2.11186,-2.87868 -3.64777,-3.838238 a 19.966737,19.958832 0 0 0 -9.98336,-3.07059 c -1.53591,0 -3.2638,0.383825 -4.41572,0.767648 l -2.11187,0.575735 1.72789,-0.767647 c 0.95994,-0.383824 1.72789,-0.575736 1.72789,-1.535295 0,-1.15147 -0.95994,-3.07059 -2.11187,-5.565444 -1.15192,-2.302942 -2.49584,-5.181621 -4.03174,-7.484561 -1.34392,-2.302943 -2.68783,-4.030151 -4.22373,-5.373533 l -3.2638,-2.878678 c -0.19198,0 0.95994,0.767647 2.30386,1.151472 1.34391,0.383823 2.68783,0.191912 5.18367,-0.383825 2.49584,-0.767647 5.95162,-1.919118 8.83144,-3.838237 2.87982,-2.111029 4.99168,-4.605883 6.14361,-7.100739 1.15193,-2.302942 1.15193,-4.413972 0.95994,-6.141178 -0.38397,-1.727206 -0.95994,-3.454414 -1.72789,-4.605887 -0.57596,-1.15147 -1.34391,-2.111029 -2.49584,-2.878676 -1.15193,-0.959557 -2.87982,-1.919117 -4.22373,-2.494853 -1.34392,-0.575734 -2.30386,-0.575734 -3.83976,-0.575734 -1.53591,0 -3.64777,0.19191 -5.95162,0.959559 -2.30386,0.767645 -4.7997,2.111028 -6.91157,3.646323 a 23.422519,23.413246 0 0 0 -7.10355,9.595594 c -0.57596,1.151471 -0.76795,1.919118 -0.57596,2.686765 0.19199,0.767648 0.76795,1.727205 0.38398,1.343382 l -4.41573,-2.878676 a 83.322725,83.289746 0 0 0 -21.502635,-8.252211 48.18895,48.169874 0 0 0 -21.31065,0 c -3.263793,0.575736 -6.335599,1.535295 -8.831443,2.686765 -2.687828,0.959561 -4.799692,2.111031 -5.95162,2.686766 l -0.767953,0.191914 2.111867,-1.151472 c 0.959938,-0.383823 1.727889,-0.767647 2.303852,-1.727208 l 1.727893,-4.030149 0.575961,-4.41397 c 0,-1.343382 -0.383974,-2.494855 -0.959937,-3.646325 C 53.758541,5.007842 52.990588,3.8563699 51.838664,2.8968115 A 13.055173,13.050006 0 0 0 39.743428,0.59386932 20.158724,20.150744 0 0 0 30.336026,6.926961 c -1.151928,1.535296 -2.111868,3.070589 -2.687833,4.797794 -0.767949,1.727208 -1.151924,3.646328 -1.343915,5.373533 0,1.727206 0.191991,3.454412 0.767952,4.797798 0.383977,1.343381 0.959942,2.494852 2.303856,3.454412 1.343914,1.151471 3.45578,2.302943 4.41572,2.878679 1.151927,0.575735 1.343913,0.383823 1.919877,0 l 2.687832,-1.91912 c 0.575963,-0.383824 0.959938,-0.383824 0.76795,-0.191911 l -1.919878,1.151468 -4.223731,3.646328 A 97.14585,97.107398 0 0 0 20.352657,51.258598 c -0.767952,1.919117 -0.767952,3.454412 -0.95994,4.030149 0,0.767649 -0.191988,0.767649 -0.191988,0.383825 v -1.151473 c 0,-0.191912 -0.191987,-0.383823 -0.767952,-0.383823 a 12.287222,12.282359 0 0 0 -6.527586,0.383823 l -3.8397558,1.727207 c -1.3439153,0.95956 -2.687829,2.111031 -3.6477697,3.262501 -0.9599392,1.151472 -1.72789,2.11103 -2.3038546,3.454415 -0.5759626,1.343383 -0.9599373,3.070587 -1.15192716,4.605882 a 13.823125,13.817653 0 0 0 2.11186806,8.0603 c 0.7679508,0.959559 1.919878,2.111031 3.0718035,2.878677 0.9599409,0.959559 2.1118681,1.535295 2.879819,1.919117 0.7679508,0.383823 1.1519267,0.383823 0.9599407,0.575736 l -2.1118679,0.76765 a 16.702942,16.696331 0 0 0 -5.567648,4.413971 10.367344,10.36324 0 0 0 -2.30385267,6.716915 c 0,1.535297 0.38397457,3.454418 0.95993731,5.181618 0.57596456,1.919122 1.72789176,3.454422 2.87981886,4.797802 1.1519272,1.34338 2.4958426,2.11103 4.0317445,2.68676 1.3439153,0.57574 3.0718049,0.76765 3.8397579,0.95956 0.575963,0.19191 0.575963,0.38383 0.383974,0.76765 l -0.76795,2.11103 c -0.383977,0.95956 -0.767951,1.91912 -0.767951,3.2625 a 15.934991,15.928684 0 0 0 2.879817,9.01986 c 0.959939,1.34338 2.111866,2.30294 3.647768,3.07059 1.535903,0.76765 3.647768,1.34338 5.567648,1.34338 1.919877,0.19192 3.647767,-0.38382 4.799696,-0.76765 l 1.535903,-0.76764 0.191988,0.19191 -0.575964,0.38382 -0.767951,0.76765 c -0.19199,0.19191 0,0.76765 0.191989,1.72721 0,0.76765 0.383974,2.30294 0.959938,3.64632 a 24.574444,24.564717 0 0 0 6.3356,7.48456 c 1.343915,0.95956 2.687829,1.5353 4.799694,1.91912 1.919879,0.57574 4.799696,0.95956 7.295539,0.76765 2.495842,0 4.799696,-0.76765 6.911562,-1.34338 l 4.607709,-3.2625 c 1.151926,-0.95956 1.72789,-1.91912 2.111864,-2.49486 0.575963,-0.38382 0.959942,-0.19191 2.687831,-0.19191 l 6.719573,0.19191 h 2.495844 z"
     id="path1078"
     style="stroke-width:0.191949" />
  <path
     fill="#f1daa4"
     d="M 34.175782,77.550522 C 33.215843,76.590963 32.255902,75.631404 31.487954,74.096107 30.72,72.560812 30.144037,70.641696 29.952048,68.530666 a 25.726372,25.716188 0 0 1 3.839758,-18.423539 l 2.687828,-2.494855 c 0.95994,-0.767648 1.727893,-0.95956 2.879819,-1.343384 1.151928,-0.383823 2.495843,-0.767645 4.031745,-0.575734 l 3.64777,0.959558 c 0.959938,0 0.959938,-0.383824 1.151928,-1.151469 0,-0.767647 0.383973,-1.727207 0.959937,-3.07059 l 2.495841,-4.030149 c 0.95994,-1.343382 2.111867,-2.494854 4.223733,-3.646326 2.111866,-1.151471 5.375661,-2.11103 8.255478,-2.686765 a 29.566128,29.554425 0 0 1 15.743004,3.07059 c 2.303855,1.343383 4.223732,3.070589 5.759635,4.989707 1.535902,1.91912 2.687828,4.222062 3.45578,5.757355 0.575965,1.535295 0.575965,2.302942 1.151928,2.302942 0.575963,0 1.727889,-0.767647 2.68783,-1.343383 0.95994,-0.575736 1.727889,-0.959559 2.879817,-1.15147 1.151926,-0.191911 2.687832,-0.383823 4.031745,-0.191911 1.343916,0.191911 2.495846,0.767645 3.647766,1.727206 1.15193,0.959558 2.49585,2.494854 3.64777,4.605885 a 30.526066,30.513986 0 0 1 2.87982,14.009564 22.654565,22.645598 0 0 1 -2.87982,8.827945 l -2.87982,3.454415 -2.30385,2.111029"
     id="path1080"
     style="stroke-width:0.191949" />
  <ellipse
     cx="44.235901"
     cy="58.091545"
     fill="#120f0a"
     rx="4.0893364"
     ry="5.8149352"
     transform="matrix(0.99863062,0.0523153,-0.05235664,0.99862845,0,0)"
     id="ellipse1082"
     style="stroke-width:0.191949" />
  <path
     fill="#544943"
     d="m 83.324668,113.43804 c 5.951626,-0.76765 11.903248,-1.53529 15.743005,-4.03015 4.031747,-2.68677 5.759637,-7.29265 6.719577,-10.747062 0.95994,-3.2625 1.15192,-5.373534 0.76795,-8.060299 A 24.382456,24.372806 0 0 0 96.763819,75.439493 C 94.075988,73.520373 90.812195,71.601255 86.972438,70.06596 A 69.691589,69.664001 0 0 0 64.701849,66.035809 c -3.263794,0.191914 -7.103551,0.575737 -11.711261,2.302946 -4.799692,1.535292 -10.367342,4.222057 -14.01511,6.141176 a 17.470894,17.463979 0 0 0 -6.719576,5.565445 c -1.535902,2.111031 -2.687828,4.989707 -3.455781,7.484561 -0.767949,2.686768 -0.959938,5.181621 -0.767949,7.100741 0.383974,2.11103 0.767949,3.64632 1.727889,5.373532 a 36.669679,36.655165 0 0 0 10.75132,10.55515 c 2.111865,0.95956 3.45578,1.15147 4.607707,1.5353"
     id="path1084"
     style="stroke-width:0.191949" />
  <path
     fill="none"
     d="m 33.023856,100.38803 4.031743,4.60589 a 21.118664,21.110303 0 0 0 9.791381,4.41397 m 46.653046,-7.10074 -0.767952,0.76765 c -0.575962,0.57574 -1.919879,1.91912 -3.64777,3.07059 -1.535901,1.15147 -3.647769,2.11103 -5.567645,3.2625"
     id="path1086"
     style="stroke-width:0.191949" />
  <ellipse
     cx="104.88004"
     cy="43.577869"
     fill="#110e09"
     rx="4.1084976"
     ry="6.1220469"
     transform="matrix(0.98405012,0.17789141,-0.16291289,0.98664046,0,0)"
     id="ellipse1088"
     style="stroke-width:0.191949" />
  <path
     fill="#a64642"
     d="m 55.102456,85.994644 c 0.575965,0.191911 0.767951,0 1.919879,-0.575738 l 4.607706,-3.262499 c 1.343916,-1.343386 1.919881,-2.302943 2.303855,-3.262502 0.383977,-0.767647 0.575964,-1.535294 0.383977,-2.302942 -0.191988,-0.767647 -0.959939,-1.727206 -1.919879,-2.302943 -0.959939,-0.575736 -2.303854,-1.15147 -3.45578,-1.343383 h -3.647772 c -1.151926,0.191913 -2.303854,0.383824 -3.071803,0.959559 -0.95994,0.575735 -1.535903,1.535297 -1.727889,2.686767 -0.383979,0.959559 -0.383979,2.111029 -0.191991,3.262501 0.191991,0.959557 0.383977,1.91912 0.95994,2.878677 l 1.91988,2.111031 c 0.575962,0.575734 1.535902,0.959559 1.919877,1.151472 z"
     id="path1090"
     style="stroke-width:0.191949" />
  <path
     fill="#edece8"
     d="m 65.853776,134.35643 h 9.215416 c 2.495842,-0.19191 3.64777,-0.57573 4.415721,-0.76764 0.575964,-0.38383 0.959938,-0.76765 1.151927,-1.5353 0.191987,-0.76765 0.575965,-2.11103 0.959939,-5.37353 l 1.535902,-11.3228 c 0.575964,-3.45441 0.95994,-4.7978 0.767952,-5.56544 0,-0.57574 -0.575965,-0.57574 -1.535902,-0.19192 l -4.415722,0.76765 a 16.318966,16.312507 0 0 1 -9.983367,-1.15147 28.222212,28.211042 0 0 1 -7.487527,-4.22206 l -1.535901,-1.34338 c -0.19199,0 0,0.57573 -0.959941,1.53529 -0.959938,0.95956 -3.071805,2.30294 -4.799694,3.2625 -1.535905,0.76765 -2.87982,0.95956 -4.031746,0.95956 l -3.071805,0.19191 c -0.575964,0.19192 -0.767951,0.57574 -0.767951,1.15147 v 2.30295 a 80.826882,80.79489 0 0 0 2.111866,14.77721 c 0.767953,2.11103 1.343914,3.2625 1.919879,3.83824 0.575963,0.57573 0.767949,0.76764 2.879817,1.15147 a 311.40429,311.28101 0 0 0 13.631137,1.53529 z"
     id="path1092"
     style="stroke-width:0.191949" />
  <defs
     id="defs1098" />
  <sodipodi:namedview
     id="namedview1096"
     pagecolor="#505050"
     bordercolor="#eeeeee"
     borderopacity="1"
     inkscape:pageshadow="0"
     inkscape:pageopacity="0"
     inkscape:pagecheckerboard="true"
     showgrid="false"
     inkscape:zoom="4.0039865"
     inkscape:cx="69.430804"
     inkscape:cy="62.937275"
     inkscape:window-width="1920"
     inkscape:window-height="947"
     inkscape:window-x="0"
     inkscape:window-y="27"
     inkscape:window-maximized="1"
     inkscape:current-layer="svg1094"
     borderlayer="false"
     width="192px"
     viewbox-height="153.6"
     fit-margin-top="0"
     fit-margin-left="0"
     fit-margin-right="0"
     fit-margin-bottom="0" />
  <metadata
     id="metadata2777">
    <rdf:RDF>
      <cc:Work
         rdf:about="">
        <dc:title>Face of Spork, JoCat's Bidoof</dc:title>
        <dc:creator>
          <cc:Agent>
            <dc:title>Paul Hanzlik</dc:title>
          </cc:Agent>
        </dc:creator>
        <cc:license
           rdf:resource="http://creativecommons.org/publicdomain/zero/1.0/" />
      </cc:Work>
      <cc:License
         rdf:about="http://creativecommons.org/publicdomain/zero/1.0/">
        <cc:permits
           rdf:resource="http://creativecommons.org/ns#Reproduction" />
        <cc:permits
           rdf:resource="http://creativecommons.org/ns#Distribution" />
        <cc:permits
           rdf:resource="http://creativecommons.org/ns#DerivativeWorks" />
      </cc:License>
    </rdf:RDF>
  </metadata>
</svg>
