<svg xmlns="http://www.w3.org/2000/svg" viewBox="0 0 1000 1000"><path fill="#1a1a1a" d="M0 0h1000v1000H0z"/><path fill="#af7f4f" d="m483 828 12 15a126 126 0 0 0 64 30c12 3 22 3 32 0a94 94 0 0 0 57-40c5-8 6-13 6-16 0-4-2-5-6-8l-8-5 17 10c8 3 15 5 22 5s14 0 23-2c10-2 22-5 31-10 10-5 15-11 21-21a138 138 0 0 0 15-63c0-8-1-12 1-14h19c10 0 22-3 32-7 11-4 20-10 28-20s16-24 19-36c4-12 4-22 2-33s-6-23-10-31c-4-9-8-14-11-18-4-3-6-5-5-6l13-2a70 70 0 0 0 40-39c3-9 4-17 2-26-2-10-8-22-14-30-5-9-11-15-19-20a104 104 0 0 0-52-16c-8 0-17 2-23 4l-11 3 9-4c5-2 9-3 9-8 0-6-5-16-11-29-6-12-13-27-21-39-7-12-14-21-22-28l-17-15c-1 0 5 4 12 6s14 1 27-2c13-4 31-10 46-20 15-11 26-24 32-37 6-12 6-23 5-32-2-9-5-18-9-24-3-6-7-11-13-15-6-5-15-10-22-13s-12-3-20-3-19 1-31 5-25 11-36 19a122 122 0 0 0-37 50c-3 6-4 10-3 14s4 9 2 7l-23-15a434 434 0 0 0-112-43 251 251 0 0 0-111 0c-17 3-33 8-46 14-14 5-25 11-31 14l-4 1 11-6c5-2 9-4 12-9l9-21 3-23c0-7-2-13-5-19s-7-12-13-17a68 68 0 0 0-63-12 105 105 0 0 0-49 33c-6 8-11 16-14 25-4 9-6 19-7 28 0 9 1 18 4 25 2 7 5 13 12 18 7 6 18 12 23 15 6 3 7 2 10 0l14-10c3-2 5-2 4-1l-10 6-22 19a506 506 0 0 0-66 106c-4 10-4 18-5 21 0 4-1 4-1 2v-6c0-1-1-2-4-2a64 64 0 0 0-34 2l-20 9c-7 5-14 11-19 17s-9 11-12 18-5 16-6 24a72 72 0 0 0 11 42c4 5 10 11 16 15 5 5 11 8 15 10s6 2 5 3l-11 4a87 87 0 0 0-29 23 54 54 0 0 0-12 35c0 8 2 18 5 27 3 10 9 18 15 25s13 11 21 14c7 3 16 4 20 5 3 1 3 2 2 4l-4 11c-2 5-4 10-4 17a83 83 0 0 0 15 47c5 7 11 12 19 16s19 7 29 7c10 1 19-2 25-4l8-4 1 1-3 2-4 4c-1 1 0 4 1 9 0 4 2 12 5 19a128 128 0 0 0 33 39c7 5 14 8 25 10 10 3 25 5 38 4 13 0 25-4 36-7l24-17c6-5 9-10 11-13 3-2 5-1 14-1l35 1h13l3 3z"/><path fill="#f1daa4" d="M278 529c-5-5-10-10-14-18s-7-18-8-29a134 134 0 0 1 20-96l14-13c5-4 9-5 15-7s13-4 21-3l19 5c5 0 5-2 6-6 0-4 2-9 5-16l13-21c5-7 11-13 22-19s28-11 43-14a154 154 0 0 1 82 16c12 7 22 16 30 26s14 22 18 30c3 8 3 12 6 12s9-4 14-7 9-5 15-6 14-2 21-1 13 4 19 9 13 13 19 24a159 159 0 0 1 15 73 118 118 0 0 1-15 46l-15 18-12 11"/><ellipse cx="336.8" cy="422.2" fill="#120f0a" rx="21.3" ry="30.3" transform="rotate(3)"/><path fill="#544943" d="M534 716c31-4 62-8 82-21 21-14 30-38 35-56 5-17 6-28 4-42a127 127 0 0 0-51-79c-14-10-31-20-51-28a363 363 0 0 0-116-21c-17 1-37 3-61 12-25 8-54 22-73 32a91 91 0 0 0-35 29c-8 11-14 26-18 39-4 14-5 27-4 37 2 11 4 19 9 28a191 191 0 0 0 56 55c11 5 18 6 24 8"/><path fill="none" d="m272 648 21 24a110 110 0 0 0 51 23m243-37-4 4c-3 3-10 10-19 16-8 6-19 11-29 17"/><ellipse cx="665.3" cy="332.2" fill="#110e09" rx="21.4" ry="31.9" transform="matrix(.98404 .17796 -.16285 .98665 0 0)"/><path fill="#a64642" d="M387 573c3 1 4 0 10-3l24-17c7-7 10-12 12-17 2-4 3-8 2-12s-5-9-10-12-12-6-18-7h-19c-6 1-12 2-16 5-5 3-8 8-9 14-2 5-2 11-1 17 1 5 2 10 5 15l10 11c3 3 8 5 10 6z"/><path fill="#edece8" d="M443 825h48c13-1 19-3 23-4 3-2 5-4 6-8s3-11 5-28l8-59c3-18 5-25 4-29 0-3-3-3-8-1l-23 4a85 85 0 0 1-52-6 147 147 0 0 1-39-22l-8-7c-1 0 0 3-5 8s-16 12-25 17c-8 4-15 5-21 5l-16 1c-3 1-4 3-4 6v12a421 421 0 0 0 11 77c4 11 7 17 10 20s4 4 15 6a1622 1622 0 0 0 71 8z"/></svg>