<?xml version="1.0" encoding="UTF-8" standalone="no"?>
<svg
   viewBox="0 0 409.6 299.4797"
   version="1.1"
   id="svg3508"
   sodipodi:docname="Spork in tall grass.svg"
   inkscape:version="1.1.1 (3bf5ae0d25, 2021-09-20)"
   width="409.60001"
   height="299.47971"
   xmlns:inkscape="http://www.inkscape.org/namespaces/inkscape"
   xmlns:sodipodi="http://sodipodi.sourceforge.net/DTD/sodipodi-0.dtd"
   xmlns="http://www.w3.org/2000/svg"
   xmlns:svg="http://www.w3.org/2000/svg"
   xmlns:rdf="http://www.w3.org/1999/02/22-rdf-syntax-ns#"
   xmlns:cc="http://creativecommons.org/ns#"
   xmlns:dc="http://purl.org/dc/elements/1.1/">
  <title
     id="title3571">A wild BIDOOF appeared!</title>
  <sodipodi:namedview
     id="namedview3510"
     pagecolor="#505050"
     bordercolor="#eeeeee"
     borderopacity="1"
     inkscape:pageshadow="0"
     inkscape:pageopacity="0"
     inkscape:pagecheckerboard="true"
     showgrid="false"
     inkscape:zoom="1.5939154"
     inkscape:cx="212.68381"
     inkscape:cy="139.90705"
     inkscape:window-width="1920"
     inkscape:window-height="947"
     inkscape:window-x="0"
     inkscape:window-y="27"
     inkscape:window-maximized="1"
     inkscape:current-layer="svg3508"
     width="409.60001px"
     fit-margin-top="0"
     fit-margin-left="0"
     fit-margin-right="0"
     fit-margin-bottom="0" />
  <defs
     id="defs3416">
    <filter
       id="a"
       width="1"
       height="1"
       x="0"
       y="0"
       color-interpolation-filters="sRGB">
      <feColorMatrix
         values="1 0 0 -0.01 -0 0 1 0 -0.01 -0 0 0 1 -0.01 -0 0 0 0 1 0"
         id="feColorMatrix3326" />
    </filter>
    <filter
       id="b"
       width="1"
       height="1"
       x="0"
       y="0"
       color-interpolation-filters="sRGB">
      <feColorMatrix
         values="1 0 0 -0.01 -0 0 1 0 -0.01 -0 0 0 1 -0.01 -0 0 0 0 1 0"
         id="feColorMatrix3329" />
    </filter>
    <filter
       id="c"
       width="1"
       height="1"
       x="0"
       y="0"
       color-interpolation-filters="sRGB">
      <feColorMatrix
         values="1 0 0 -0.01 -0 0 1 0 -0.01 -0 0 0 1 -0.01 -0 0 0 0 1 0"
         id="feColorMatrix3332" />
    </filter>
    <filter
       id="d"
       width="1"
       height="1"
       x="0"
       y="0"
       color-interpolation-filters="sRGB">
      <feColorMatrix
         values="1 0 0 -0.01 -0 0 1 0 -0.01 -0 0 0 1 -0.01 -0 0 0 0 1 0"
         id="feColorMatrix3335" />
    </filter>
    <filter
       id="e"
       width="1"
       height="1"
       x="0"
       y="0"
       color-interpolation-filters="sRGB">
      <feColorMatrix
         values="1 0 0 -0.01 -0 0 1 0 -0.01 -0 0 0 1 -0.01 -0 0 0 0 1 0"
         id="feColorMatrix3338" />
    </filter>
    <filter
       id="f"
       width="1"
       height="1"
       x="0"
       y="0"
       color-interpolation-filters="sRGB">
      <feColorMatrix
         values="1 0 0 -0.01 -0 0 1 0 -0.01 -0 0 0 1 -0.01 -0 0 0 0 1 0"
         id="feColorMatrix3341" />
    </filter>
    <filter
       id="g"
       width="1"
       height="1"
       x="0"
       y="0"
       color-interpolation-filters="sRGB">
      <feColorMatrix
         values="1 0 0 -0.01 -0 0 1 0 -0.01 -0 0 0 1 -0.01 -0 0 0 0 1 0"
         id="feColorMatrix3344" />
    </filter>
    <filter
       id="h"
       width="1"
       height="1"
       x="0"
       y="0"
       color-interpolation-filters="sRGB">
      <feColorMatrix
         values="1 0 0 -0.01 -0 0 1 0 -0.01 -0 0 0 1 -0.01 -0 0 0 0 1 0"
         id="feColorMatrix3347" />
    </filter>
    <filter
       id="i"
       width="1"
       height="1"
       x="0"
       y="0"
       color-interpolation-filters="sRGB">
      <feColorMatrix
         values="1 0 0 -0.01 -0 0 1 0 -0.01 -0 0 0 1 -0.01 -0 0 0 0 1 0"
         id="feColorMatrix3350" />
    </filter>
    <filter
       id="j"
       width="1"
       height="1"
       x="0"
       y="0"
       color-interpolation-filters="sRGB">
      <feColorMatrix
         values="1 0 0 -0.01 -0 0 1 0 -0.01 -0 0 0 1 -0.01 -0 0 0 0 1 0"
         id="feColorMatrix3353" />
    </filter>
    <filter
       id="k"
       width="1"
       height="1"
       x="0"
       y="0"
       color-interpolation-filters="sRGB">
      <feColorMatrix
         values="1 0 0 -0.01 -0 0 1 0 -0.01 -0 0 0 1 -0.01 -0 0 0 0 1 0"
         id="feColorMatrix3356" />
    </filter>
    <filter
       id="l"
       width="1"
       height="1"
       x="0"
       y="0"
       color-interpolation-filters="sRGB">
      <feColorMatrix
         values="1 0 0 -0.01 -0 0 1 0 -0.01 -0 0 0 1 -0.01 -0 0 0 0 1 0"
         id="feColorMatrix3359" />
    </filter>
    <filter
       id="m"
       width="1"
       height="1"
       x="0"
       y="0"
       color-interpolation-filters="sRGB">
      <feColorMatrix
         values="1 0 0 -0.01 -0 0 1 0 -0.01 -0 0 0 1 -0.01 -0 0 0 0 1 0"
         id="feColorMatrix3362" />
    </filter>
    <filter
       id="n"
       width="1"
       height="1"
       x="0"
       y="0"
       color-interpolation-filters="sRGB">
      <feColorMatrix
         values="1 0 0 -0.01 -0 0 1 0 -0.01 -0 0 0 1 -0.01 -0 0 0 0 1 0"
         id="feColorMatrix3365" />
    </filter>
    <filter
       id="o"
       width="1"
       height="1"
       x="0"
       y="0"
       color-interpolation-filters="sRGB">
      <feColorMatrix
         values="1 0 0 -0.01 -0 0 1 0 -0.01 -0 0 0 1 -0.01 -0 0 0 0 1 0"
         id="feColorMatrix3368" />
    </filter>
    <filter
       id="p"
       width="1"
       height="1"
       x="0"
       y="0"
       color-interpolation-filters="sRGB">
      <feColorMatrix
         values="1 0 0 -0.01 -0 0 1 0 -0.01 -0 0 0 1 -0.01 -0 0 0 0 1 0"
         id="feColorMatrix3371" />
    </filter>
    <filter
       id="q"
       width="1"
       height="1"
       x="0"
       y="0"
       color-interpolation-filters="sRGB">
      <feColorMatrix
         values="1 0 0 -0.01 -0 0 1 0 -0.01 -0 0 0 1 -0.01 -0 0 0 0 1 0"
         id="feColorMatrix3374" />
    </filter>
    <filter
       id="r"
       width="1"
       height="1"
       x="0"
       y="0"
       color-interpolation-filters="sRGB">
      <feColorMatrix
         values="1 0 0 -0.01 -0 0 1 0 -0.01 -0 0 0 1 -0.01 -0 0 0 0 1 0"
         id="feColorMatrix3377" />
    </filter>
    <filter
       id="s"
       width="1"
       height="1"
       x="0"
       y="0"
       color-interpolation-filters="sRGB">
      <feColorMatrix
         values="1 0 0 -0.01 -0 0 1 0 -0.01 -0 0 0 1 -0.01 -0 0 0 0 1 0"
         id="feColorMatrix3380" />
    </filter>
    <filter
       id="t"
       width="1"
       height="1"
       x="0"
       y="0"
       color-interpolation-filters="sRGB">
      <feColorMatrix
         values="1 0 0 -0.01 -0 0 1 0 -0.01 -0 0 0 1 -0.01 -0 0 0 0 1 0"
         id="feColorMatrix3383" />
    </filter>
    <filter
       id="u"
       width="1"
       height="1"
       x="0"
       y="0"
       color-interpolation-filters="sRGB">
      <feColorMatrix
         values="1 0 0 -0.01 -0 0 1 0 -0.01 -0 0 0 1 -0.01 -0 0 0 0 1 0"
         id="feColorMatrix3386" />
    </filter>
    <filter
       id="v"
       width="1"
       height="1"
       x="0"
       y="0"
       color-interpolation-filters="sRGB">
      <feColorMatrix
         values="1 0 0 -0.01 -0 0 1 0 -0.01 -0 0 0 1 -0.01 -0 0 0 0 1 0"
         id="feColorMatrix3389" />
    </filter>
    <filter
       id="w"
       width="1"
       height="1"
       x="0"
       y="0"
       color-interpolation-filters="sRGB">
      <feColorMatrix
         values="1 0 0 -0.01 -0 0 1 0 -0.01 -0 0 0 1 -0.01 -0 0 0 0 1 0"
         id="feColorMatrix3392" />
    </filter>
    <filter
       id="x"
       width="1"
       height="1"
       x="0"
       y="0"
       color-interpolation-filters="sRGB">
      <feColorMatrix
         values="1 0 0 -0.01 -0 0 1 0 -0.01 -0 0 0 1 -0.01 -0 0 0 0 1 0"
         id="feColorMatrix3395" />
    </filter>
    <filter
       id="y"
       width="1"
       height="1"
       x="0"
       y="0"
       color-interpolation-filters="sRGB">
      <feColorMatrix
         values="1 0 0 -0.01 -0 0 1 0 -0.01 -0 0 0 1 -0.01 -0 0 0 0 1 0"
         id="feColorMatrix3398" />
    </filter>
    <filter
       id="z"
       width="1"
       height="1"
       x="0"
       y="0"
       color-interpolation-filters="sRGB">
      <feColorMatrix
         values="1 0 0 -0.01 -0 0 1 0 -0.01 -0 0 0 1 -0.01 -0 0 0 0 1 0"
         id="feColorMatrix3401" />
    </filter>
    <filter
       id="A"
       width="1"
       height="1"
       x="0"
       y="0"
       color-interpolation-filters="sRGB">
      <feColorMatrix
         values="1 0 0 -0.01 -0 0 1 0 -0.01 -0 0 0 1 -0.01 -0 0 0 0 1 0"
         id="feColorMatrix3404" />
    </filter>
    <filter
       id="B"
       width="1"
       height="1"
       x="0"
       y="0"
       color-interpolation-filters="sRGB">
      <feColorMatrix
         values="1 0 0 -0.01 -0 0 1 0 -0.01 -0 0 0 1 -0.01 -0 0 0 0 1 0"
         id="feColorMatrix3407" />
    </filter>
    <filter
       id="C"
       width="1"
       height="1"
       x="0"
       y="0"
       color-interpolation-filters="sRGB">
      <feColorMatrix
         values="1 0 0 -0.01 -0 0 1 0 -0.01 -0 0 0 1 -0.01 -0 0 0 0 1 0"
         id="feColorMatrix3410" />
    </filter>
    <filter
       id="D"
       width="1"
       height="1"
       x="0"
       y="0"
       color-interpolation-filters="sRGB">
      <feColorMatrix
         values="1 0 0 -0.01 -0 0 1 0 -0.01 -0 0 0 1 -0.01 -0 0 0 0 1 0"
         id="feColorMatrix3413" />
    </filter>
  </defs>
  <path
     fill="#68ce5a"
     d="m 463,446 c 26,-20 69,-46 101,-67 32,-21 53,-39 78,-52 26,-13 55,-22 66,-22 11,-1 3,7 -9,24 -12,16 -29,42 -55,73 -26,31 -61,68 -87,101 -26,34 -43,63 -57,94 -13,31 -24,64 -42,73 -19,9 -46,-6 -54,-39 -9,-33 2,-83 12,-116 10,-33 21,-48 47,-69 z"
     filter="url(#a)"
     id="path3418"
     transform="matrix(0.32338071,0,0,0.32338071,-2.7307704,-4.8507107)" />
  <path
     fill="#19b95d"
     d="m 1018,15 a 692,692 0 0 1 -1,87 c -3,30 -9,64 -10,88 -1,25 3,41 9,95 l 22,225 c 8,78 14,141 5,169 -8,28 -31,23 -55,-16 C 964,624 939,553 927,498 915,442 916,404 916,372 l -1,-69 c 0,-13 0,-15 4,-30 a 1636,1636 0 0 1 99,-258 z"
     filter="url(#b)"
     id="path3420"
     transform="matrix(0.32338071,0,0,0.32338071,-2.7307704,-4.8507107)" />
  <path
     fill="#09894b"
     d="m 849,214 a 373,373 0 0 0 -23,130 c 0,25 1,55 10,106 8,51 24,122 37,180 13,58 25,102 37,122 13,19 28,15 38,-7 11,-21 18,-59 14,-105 -3,-46 -16,-101 -29,-148 L 898,364 872,249 c -8,-27 -12,-38 -15,-43 -3,-5 -4,-4 -8,8 z"
     filter="url(#c)"
     id="path3422"
     transform="matrix(0.32338071,0,0,0.32338071,-2.7307704,-4.8507107)" />
  <path
     fill="#205c41"
     d="M 143,698 C 116,663 108,641 98,621 88,600 76,582 66,566 56,549 48,534 43,522 c -4,-13 -7,-22 -7,-28 -1,-6 0,-9 2,-11 3,-2 7,-3 13,-1 5,1 12,3 22,10 l 37,29 40,37 c 11,11 18,18 18,15 1,-2 -4,-14 -12,-29 L 128,492 A 567,567 0 0 1 56,275 l -1,-26 v -10 c 1,-2 3,-2 6,1 a 415,415 0 0 1 58,52 c 13,13 22,27 34,48 13,21 28,49 40,71 l 22,43 c 4,8 6,7 4,0 L 209,417 195,358 181,300 163,247 A 1032,1032 0 0 1 126,58 c -1,-16 0,-20 2,-22 2,-2 3,-2 10,4 l 33,35 a 1055,1055 0 0 1 82,114 l 16,36 c 3,8 5,11 6,20 l 3,22 1,-20 2,-33 c 1,-12 0,-24 -2,-38 l -7,-41 a 369,369 0 0 1 -3,-68 c 1,-5 2,-8 3,-7 2,1 4,4 10,14 l 27,43 c 12,19 25,40 33,56 8,15 11,24 15,43 4,20 8,48 12,106 4,58 6,145 5,222 -1,76 -6,142 -15,191 -8,49 -19,81 -36,95 -17,13 -39,7 -73,-20 -34,-28 -80,-76 -107,-112 z"
     filter="url(#d)"
     id="path3424"
     transform="matrix(0.32338071,0,0,0.32338071,-2.7307704,-4.8507107)" />
  <path
     fill="#5cc857"
     d="m 499,502 c 15,-42 32,-104 45,-146 14,-43 24,-66 30,-78 7,-12 10,-13 15,-7 5,6 13,20 32,55 20,35 53,91 76,151 23,59 38,121 4,159 -34,38 -116,53 -165,41 -48,-13 -63,-52 -64,-83 -1,-30 12,-51 27,-92 z"
     filter="url(#e)"
     id="path3426"
     transform="matrix(0.32338071,0,0,0.32338071,-2.7307704,-4.8507107)" />
  <path
     fill="#49be5a"
     d="m 692,217 c 3,-3 4,-3 0,1 l -21,24 c -11,11 -23,27 -37,43 l -39,41 c -10,9 -14,14 -17,19 l -19,34 -49,88 -51,80 c -19,29 -43,66 -51,73 -9,6 -2,-19 18,-55 19,-37 51,-85 73,-122 22,-36 35,-61 42,-74 7,-14 9,-15 18,-24 l 46,-43 61,-60 z"
     filter="url(#f)"
     id="path3428"
     transform="matrix(0.32338071,0,0,0.32338071,-2.7307704,-4.8507107)" />
  <path
     fill="#00954f"
     d="m 244,720 c -5,-41 -5,-110 -8,-157 -3,-47 -8,-70 -10,-96 a 491,491 0 0 1 8,-122 c 2,-15 4,-31 7,-43 3,-11 5,-17 8,-17 3,0 6,6 11,21 l 19,69 23,87 c 6,23 9,35 11,21 2,-13 1,-51 1,-74 0,-24 0,-32 3,-48 3,-16 9,-38 18,-67 a 2124,2124 0 0 1 57,-153 c 8,-18 15,-31 19,-37 4,-7 5,-6 5,4 0,10 0,30 -2,59 l -8,95 c -2,27 -1,41 -1,68 l -5,115 a 623,623 0 0 1 -88,288 c -19,31 -32,40 -43,39 -11,-1 -20,-12 -25,-52 z"
     filter="url(#g)"
     id="path3430"
     transform="matrix(0.32338071,0,0,0.32338071,-2.7307704,-4.8507107)" />
  <path
     fill="#03a257"
     d="M 496,162 A 602,602 0 0 0 392,359 c -17,53 -32,120 -41,168 -10,49 -14,81 -22,121 -8,40 -20,89 -18,118 2,29 17,38 41,12 25,-26 58,-87 81,-135 23,-47 36,-82 48,-132 a 2202,2202 0 0 0 39,-256 c -1,-27 -5,-56 -7,-73 l -4,-26 c -1,-4 -2,-6 -13,6 z"
     filter="url(#h)"
     id="path3432"
     transform="matrix(0.32338071,0,0,0.32338071,-2.7307704,-4.8507107)" />
  <path
     fill="#46b658"
     d="M 266,756 C 249,734 211,647 182,586 153,525 134,491 121,470 107,450 100,442 85,428 A 3978,3978 0 0 1 10,349 c -3,-4 -2,-4 6,1 l 44,28 71,41 c 17,11 18,13 22,19 l 22,36 a 814,814 0 0 1 90,215 c 11,45 17,89 1,67 z"
     filter="url(#i)"
     id="path3434"
     transform="matrix(0.32338071,0,0,0.32338071,-2.7307704,-4.8507107)" />
  <path
     fill="#0e994f"
     d="m 516,685 c 28,-26 74,-77 108,-118 34,-41 56,-72 58,-86 3,-14 -13,-10 -32,-1 -18,10 -39,26 -72,53 -33,26 -77,62 -97,93 -19,31 -14,56 -7,69 6,14 15,15 42,-10 z"
     filter="url(#j)"
     id="path3436"
     transform="matrix(0.32338071,0,0,0.32338071,-2.7307704,-4.8507107)" />
  <path
     fill="#01a959"
     d="M 857,431 A 2024,2024 0 0 0 701,341 c -25,-12 -38,-17 -49,-18 -11,-1 -21,3 -24,8 -3,5 0,11 15,39 14,29 40,79 68,129 29,50 61,99 54,100 -7,2 -52,-44 -81,-75 -29,-31 -42,-48 -53,-58 -10,-9 -16,-11 -19,-2 -3,9 -2,29 25,79 28,49 82,128 127,177 44,49 79,68 116,63 36,-5 74,-34 104,-63 30,-29 53,-58 64,-81 12,-22 14,-39 12,-52 -2,-13 -8,-21 -21,-30 -14,-9 -35,-19 -50,-32 -16,-12 -26,-26 -46,-48 a 1967,1967 0 0 0 -88,-90 c -2,0 -2,1 4,13 l 30,51 a 590,590 0 0 1 57,147 c 2,9 2,11 -1,3 l -15,-44 c -6,-17 -12,-34 -21,-52 -9,-17 -22,-36 -30,-47 -7,-12 -9,-18 -22,-27 z"
     filter="url(#k)"
     id="path3438"
     transform="matrix(0.32338071,0,0,0.32338071,-2.7307704,-4.8507107)" />
  <path
     fill="#158747"
     d="m 443,682 c 7,-49 27,-104 43,-140 16,-36 30,-52 45,-70 15,-17 32,-36 46,-49 14,-13 23,-19 36,-26 l 39,-20 c 11,-4 17,-4 17,2 0,7 -6,20 -17,43 l -44,87 c -14,30 -26,57 -34,79 -9,22 -15,39 -7,45 7,6 28,-1 45,-7 16,-7 30,-14 42,-16 13,-3 25,-1 30,6 5,6 4,17 -24,43 -27,25 -81,66 -120,94 -39,29 -64,45 -80,32 -16,-12 -23,-54 -17,-103 z"
     filter="url(#l)"
     id="path3440"
     transform="matrix(0.32338071,0,0,0.32338071,-2.7307704,-4.8507107)" />
  <path
     fill="#166943"
     d="M 136,740 A 679,679 0 0 0 75,705 c -7,-3 -11,-3 -13,-3 -3,1 -4,2 -4,4 l 6,11 a 730,730 0 0 0 84,96 l 37,29 c 12,10 22,19 37,29 14,11 33,23 43,29 11,6 13,6 21,5 l 35,-8 c 12,-2 23,-2 35,0 12,2 25,7 35,11 10,4 15,9 20,9 5,1 9,-1 17,-8 a 553,553 0 0 0 81,-71 c 12,-13 18,-21 20,-32 3,-11 1,-24 -1,-34 -2,-10 -4,-16 -7,-21 -3,-6 -7,-10 -12,-12 -4,-2 -9,-2 -15,2 -7,3 -16,10 -24,15 -8,5 -15,9 -18,9 -3,0 -1,-5 3,-15 l 11,-36 c 2,-12 2,-20 0,-30 -1,-10 -5,-22 -8,-30 l -7,-22 a 325,325 0 0 0 -19,-38 l -5,-5 c -2,-1 -3,-1 -5,1 l -6,10 -8,18 -8,30 -8,23 -5,15 c -1,1 -1,-3 -1,-9 l -2,-25 c -1,-13 -4,-32 -10,-45 -5,-14 -13,-22 -23,-34 l -36,-41 a 928,928 0 0 0 -58,-58 c -4,-4 -4,-3 -3,1 a 232,232 0 0 0 24,49 c 6,7 10,12 9,13 -1,1 -7,-3 -14,-8 l -26,-19 a 715,715 0 0 0 -59,-37 c -7,-2 -10,-2 -12,3 -2,4 -2,12 -3,20 l -2,26 c 1,8 3,16 8,30 l 23,52 c 11,22 23,48 22,53 -1,6 -16,-9 -32,-21 a 367,367 0 0 0 -89,-50 c -8,-4 -12,-5 -15,-2 -2,4 -4,11 -2,21 2,10 7,23 14,34 6,12 14,22 27,42 12,20 31,49 34,61 4,12 -7,7 -13,5 z"
     filter="url(#m)"
     id="path3442"
     transform="matrix(0.32338071,0,0,0.32338071,-2.7307704,-4.8507107)" />
  <path
     fill="#1e5f41"
     d="m 814,891 c -4,1 -6,0 -11,-2 -6,-1 -16,-4 -26,-12 -11,-9 -22,-23 -36,-43 -13,-19 -29,-45 -48,-79 A 2824,2824 0 0 1 616,596 c -2,-11 0,-18 8,-17 8,0 24,9 36,21 13,11 23,25 27,25 5,1 4,-11 -2,-29 l -35,-78 c -15,-37 -34,-89 -44,-121 -11,-31 -12,-43 -13,-50 -1,-8 -1,-11 3,-12 4,0 11,4 26,20 a 663,663 0 0 1 101,167 c 13,32 23,65 21,57 l -23,-94 -16,-82 c -5,-18 -10,-28 -20,-46 L 648,291 A 860,860 0 0 1 590,166 l -13,-36 c -2,-7 -2,-10 1,-9 3,0 8,2 22,15 a 1524,1524 0 0 1 107,112 c 13,18 23,36 30,67 6,30 9,73 14,121 5,48 11,101 17,133 a 235,235 0 0 0 14,52 l -7,-24 A 692,692 0 0 1 758,487 l -11,-110 -6,-80 c -2,-17 -3,-24 -6,-33 l -15,-35 a 2280,2280 0 0 1 -33,-83 1549,1549 0 0 1 73,111 c 12,24 14,33 20,54 l 22,79 c 7,26 13,47 17,68 4,21 5,42 7,63 a 1944,1944 0 0 0 6,53 l -1,-36 -1,-29 -2,-39 c -1,-14 -2,-27 -5,-42 l -7,-46 -2,-22 a 1333,1333 0 0 1 30,107 c 5,23 7,40 9,61 l 3,66 3,46 c 2,6 3,-2 5,-14 l 6,-45 3,-32 c 1,-7 2,-7 3,-4 l 3,18 a 614,614 0 0 1 2,88 c -1,20 -1,48 30,46 30,-1 92,-31 137,-41 44,-10 71,1 86,12 16,11 19,22 18,30 -2,8 -9,14 -14,23 -6,9 -10,20 -21,34 -11,13 -30,28 -45,41 -15,12 -26,23 -36,28 -10,5 -17,6 -28,10 -12,4 -26,11 -36,20 -9,9 -15,19 -31,25 -15,5 -41,6 -62,6 l -47,2 c -10,1 -15,3 -18,4 z"
     filter="url(#n)"
     id="path3444"
     transform="matrix(0.32338071,0,0,0.32338071,-2.7307704,-4.8507107)" />
  <path
     fill="#019a54"
     d="m 1098,77 c 10,-12 13,-12 16,-1 3,11 6,32 8,61 3,30 5,66 -1,118 -6,52 -21,119 -35,184 -14,66 -29,130 -45,191 -16,61 -34,119 -53,139 -19,20 -40,3 -45,-55 -6,-57 5,-155 14,-227 10,-73 18,-120 26,-161 a 418,418 0 0 1 71,-188 c 16,-25 34,-49 44,-61 z"
     filter="url(#o)"
     id="path3446"
     transform="matrix(0.32338071,0,0,0.32338071,-2.7307704,-4.8507107)" />
  <path
     fill="#25a63d"
     d="m 1204,323 c -12,9 -36,29 -55,48 -19,19 -32,38 -42,53 -11,14 -19,25 -28,49 -9,24 -19,60 -27,108 -8,47 -13,105 -2,123 12,17 40,-7 64,-45 24,-38 43,-91 60,-140 17,-49 32,-94 40,-122 9,-29 10,-40 10,-51 0,-11 -2,-21 -4,-26 l -2,-7 z"
     filter="url(#p)"
     id="path3448"
     transform="matrix(0.32338071,0,0,0.32338071,-2.7307704,-4.8507107)" />
  <path
     fill="#2dc165"
     d="m 1184,424 -2,4 -18,24 a 775,775 0 0 1 -86,78 c -10,9 -19,16 -27,28 -8,12 -16,30 -23,43 -6,14 -11,23 -9,24 1,1 9,-6 16,-14 l 20,-24 20,-16 c 6,-6 13,-11 28,-21 l 51,-38 c 17,-12 30,-22 34,-23 4,-2 -2,4 -11,12 -10,9 -24,21 -40,40 a 491,491 0 0 0 -110,223 c -6,23 -10,38 -27,46 -18,8 -49,8 -59,-30 a 426,426 0 0 1 54,-253 c 11,-16 18,-23 34,-33 16,-10 41,-23 67,-35 26,-13 53,-25 68,-31 15,-5 18,-5 19,-4 z"
     filter="url(#q)"
     id="path3450"
     transform="matrix(0.32338071,0,0,0.32338071,-2.7307704,-4.8507107)" />
  <path
     fill="#187047"
     d="M 837,762 C 823,730 797,663 782,606 766,549 760,503 755,460 L 745,346 c -3,-32 -6,-55 -13,-80 -8,-25 -21,-52 -30,-74 -9,-21 -14,-36 -16,-44 -2,-7 0,-7 4,-2 5,5 12,16 25,36 l 43,69 c 11,19 15,28 18,39 l 15,54 25,102 c 7,28 8,39 10,57 l 6,73 11,93 c 5,35 12,78 13,100 1,23 -4,25 -19,-7 z"
     filter="url(#r)"
     id="path3452"
     transform="matrix(0.32338071,0,0,0.32338071,-2.7307704,-4.8507107)" />
  <g
     transform="matrix(0.15623816,0,0,0.15623816,94.606816,100.5714)"
     id="g3482">
    <path
       fill="#2d2825"
       d="m 1102,982 a 390,390 0 0 0 -20,39 121,121 0 0 0 -6,20 c 0,3 1,3 3,3 l 13,-3 20,-6 c 5,-2 7,-3 8,-2 2,0 3,1 5,4 l 10,12 c 3,4 7,6 10,8 2,1 5,1 7,-1 l 10,-6 14,-11 c 4,-3 6,-5 8,-5 l 8,2 a 286,286 0 0 0 33,8 c 2,-1 3,-2 1,-7 l -13,-26 -20,-34"
       id="path3454" />
    <path
       fill="#2c2724"
       d="m 668,1125 a 1362,1362 0 0 0 -18,46 l 1,3 c 1,1 2,2 5,2 l 13,-1 18,-4 c 4,-1 6,0 8,1 l 9,7 13,15 c 3,4 5,5 7,5 2,1 4,0 9,-4 l 19,-15 c 5,-4 6,-4 12,-2 l 23,6 c 7,2 12,4 16,3 3,0 4,-2 4,-6 1,-4 0,-9 -2,-15 -1,-7 -4,-13 -7,-20 a 225,225 0 0 0 -18,-30"
       id="path3456" />
    <path
       fill="#302c29"
       d="m 219,1113 -9,24 c -2,6 -1,11 0,13 0,2 2,2 7,2 h 16 c 4,0 5,0 7,3 3,2 6,7 9,11 l 7,7 c 2,1 2,0 4,-1 l 7,-5 13,-10 c 3,-3 6,-4 9,-4 l 13,4 20,5 12,1 c 2,-1 3,-2 2,-8 l -3,-23 -3,-11"
       id="path3458" />
    <path
       fill="#9f7342"
       d="m 633,1107 a 470,470 0 0 0 52,25 c 10,4 20,5 33,4 13,-1 30,-4 47,-12 a 272,272 0 0 0 75,-56 l 24,-35 13,-23 c 3,-5 3,-5 5,-5 2,0 6,1 13,-1 7,-1 17,-5 27,-9 a 329,329 0 0 0 77,-42 c 13,-9 23,-19 29,-24 6,-6 8,-7 11,-5 3,1 6,6 10,10 l 14,17 a 291,291 0 0 0 48,35 c 6,3 12,4 20,6 h 28 c 9,-1 17,-3 24,-7 l 21,-18 a 456,456 0 0 0 62,-122 663,663 0 0 0 0,-189 l -14,-41 a 855,855 0 0 0 -48,-101 l -34,-49 -36,-43 -18,-21 -22,-19 -13,-13 -10,-8 -2,-2 5,3 10,9 12,10 17,13 c 5,2 8,2 16,1 l 28,-5 a 84,84 0 0 0 46,-29 c 6,-7 11,-16 15,-22 4,-7 6,-12 7,-20 a 192,192 0 0 0 -2,-54 122,122 0 0 0 -22,-43 l -13,-12 -16,-9 c -4,-3 -7,-4 -12,-5 a 136,136 0 0 0 -42,-5 c -7,0 -12,2 -18,4 l -24,11 c -8,5 -16,11 -22,17 -6,6 -10,12 -13,17 a 73,73 0 0 0 -9,31 l 1,7 h -2 v -11 l 6,-23 c 3,-8 7,-15 14,-22 6,-7 15,-13 24,-17 l 22,-11 c 5,-1 6,-2 7,-4 l -1,-11 -4,-16 a 149,149 0 0 0 -52,-64 149,149 0 0 0 -126,-6 129,129 0 0 0 -48,40 c -6,8 -9,15 -11,22 l -5,24 v 21 l 1,10 c 0,2 0,2 -1,-1 a 92,92 0 0 1 -1,-34 l 5,-22 c 2,-6 3,-9 2,-11 -1,-2 -5,-4 -8,-5 l -9,-5 -12,-3 a 101,101 0 0 0 -36,0 71,71 0 0 0 -38,19 64,64 0 0 0 -21,35 l -3,21 c 1,6 2,14 4,18 2,4 5,5 10,5 l 25,1 a 417,417 0 0 1 174,46 452,452 0 0 1 65,40 l -4,-3 -16,-10 A 705,705 0 0 0 874,245 l -29,-6 A 876,876 0 0 0 729,229 c -14,-1 -22,0 -35,1 a 463,463 0 0 0 -115,27 1294,1294 0 0 0 -101,43 439,439 0 0 0 -51,40 l -11,13 -6,11"
       id="path3460" />
    <path
       fill="#af7f4f"
       d="m 450,1088 a 122,122 0 0 0 46,38 c 13,7 29,12 43,15 14,3 25,3 37,0 a 110,110 0 0 0 66,-47 c 5,-9 8,-15 7,-19 0,-4 -3,-5 -7,-8 l -9,-6 20,11 c 9,4 17,6 25,6 a 139,139 0 0 0 63,-14 c 11,-5 18,-13 24,-24 6,-11 12,-27 15,-40 3,-13 3,-25 3,-34 0,-8 -2,-13 1,-15 4,-2 11,0 22,0 11,-1 25,-4 37,-9 13,-4 23,-11 33,-23 9,-11 18,-27 22,-41 5,-14 4,-26 2,-39 -3,-13 -7,-26 -12,-36 -4,-10 -9,-16 -13,-20 -4,-4 -7,-7 -5,-8 l 15,-2 c 8,-2 19,-8 27,-16 9,-8 15,-19 19,-29 4,-10 5,-19 3,-31 -3,-11 -9,-24 -16,-34 -6,-11 -13,-18 -22,-23 a 121,121 0 0 0 -61,-19 c -10,0 -20,2 -27,4 l -12,5 10,-5 c 5,-3 10,-4 10,-10 0,-6 -5,-18 -12,-33 l -24,-45 c -9,-14 -17,-24 -26,-33 l -20,-17 c -1,-1 6,4 14,6 8,3 16,2 31,-2 15,-4 36,-11 53,-23 18,-12 31,-28 38,-42 7,-14 7,-27 6,-38 -2,-11 -6,-20 -10,-27 -5,-8 -9,-13 -16,-18 -7,-6 -17,-11 -25,-15 -8,-3 -15,-4 -24,-4 -9,0 -22,2 -36,6 a 142,142 0 0 0 -85,80 c -3,7 -4,12 -3,17 1,5 5,9 2,8 L 652,418 A 505,505 0 0 0 522,368 293,293 0 0 0 393,367 c -20,4 -38,10 -53,16 l -36,16 c -7,4 -7,4 -5,2 l 13,-7 c 5,-2 10,-5 14,-10 4,-6 7,-15 10,-25 2,-9 4,-18 4,-26 0,-8 -2,-15 -5,-23 -4,-7 -9,-13 -16,-19 a 80,80 0 0 0 -73,-14 c -11,4 -23,10 -33,16 a 125,125 0 0 0 -41,51 87,87 0 0 0 -3,61 c 2,9 6,15 14,22 l 27,17 c 7,3 8,3 12,0 l 15,-11 5,-2 -11,8 a 208,208 0 0 0 -53,54 441,441 0 0 0 -50,90 c -4,12 -5,21 -5,25 -1,4 -1,4 -2,2 v -7 c 0,-2 -1,-2 -4,-3 a 75,75 0 0 0 -40,3 c -7,2 -15,5 -23,10 -8,6 -16,13 -22,20 a 82,82 0 0 0 -21,49 83,83 0 0 0 13,48 105,105 0 0 0 36,29 c 4,2 7,3 5,4 l -12,5 a 102,102 0 0 0 -34,26 62,62 0 0 0 -14,41 94,94 0 0 0 23,60 c 7,8 16,13 24,16 9,4 19,5 24,6 4,1 4,2 2,5 l -5,12 -4,20 a 96,96 0 0 0 18,55 c 5,7 12,13 21,18 10,5 22,8 34,9 12,0 23,-3 29,-5 l 10,-5 c 1,-1 1,0 1,1 l -4,2 -4,5 v 10 c 1,5 3,14 7,22 a 122,122 0 0 0 38,45 c 8,6 16,10 29,13 12,3 29,5 45,4 15,0 28,-4 41,-8 l 28,-20 c 7,-6 10,-12 13,-14 3,-3 6,-3 17,-2 a 2901,2901 0 0 0 54,1 c 2,0 2,0 4,3 z"
       id="path3462" />
    <path
       fill="#f1daa4"
       d="m 212,742 c -6,-6 -11,-12 -16,-21 a 155,155 0 0 1 14,-145 c 6,-7 11,-12 16,-15 6,-4 10,-6 17,-8 7,-2 16,-4 25,-4 9,1 18,5 22,6 5,0 5,-2 6,-7 a 148,148 0 0 1 21,-43 c 7,-8 13,-15 26,-22 a 154,154 0 0 1 97,-14 c 16,3 34,9 48,17 15,8 26,18 35,30 10,12 17,25 21,34 4,9 4,14 8,14 3,0 10,-4 16,-8 l 18,-7 c 7,-1 16,-2 24,-1 8,2 14,5 22,11 7,6 15,15 22,28 a 185,185 0 0 1 17,84 137,137 0 0 1 -18,54 150,150 0 0 1 -31,33"
       id="path3464" />
    <ellipse
       cx="288.20001"
       cy="624.5"
       fill="#120f0a"
       rx="24.799999"
       ry="35.099998"
       transform="rotate(3)"
       id="ellipse3466" />
    <path
       fill="#544943"
       d="m 510,959 c 36,-5 72,-9 95,-25 24,-16 34,-44 40,-64 6,-20 8,-33 5,-49 -3,-17 -10,-36 -20,-52 -11,-16 -23,-28 -40,-40 -16,-12 -35,-23 -58,-32 A 423,423 0 0 0 397,672 c -20,1 -43,4 -71,14 -29,9 -63,26 -85,38 -22,12 -32,21 -41,33 -9,13 -16,30 -21,46 -4,16 -5,30 -4,42 2,12 5,22 11,32 6,10 15,22 27,33 12,12 27,24 39,31 11,6 19,8 27,9"
       id="path3468" />
    <path
       fill="none"
       d="m 205,880 c 9,10 17,20 25,27 8,8 15,13 25,17 10,5 21,7 33,10 m 284,-43 -5,5 -22,18 -34,20"
       id="path3470" />
    <ellipse
       cx="684.59998"
       cy="531.5"
       fill="#110e09"
       rx="24.799999"
       ry="37"
       transform="matrix(0.98412,0.17751,-0.16326,0.98658,0,0)"
       id="ellipse3472" />
    <path
       fill="#a64642"
       d="m 339,793 c 3,1 4,0 11,-4 l 28,-20 c 8,-7 12,-13 14,-19 3,-5 4,-9 2,-14 -1,-5 -5,-10 -11,-14 -6,-4 -14,-6 -21,-8 h -22 c -7,1 -14,2 -19,6 -5,4 -9,10 -11,16 -1,6 -2,13 -1,19 1,7 4,13 6,18 3,5 7,10 12,13 4,4 9,6 12,7 z"
       id="path3474" />
    <path
       fill="#edece8"
       d="m 380,989 c 0,12 0,38 2,56 2,18 5,28 7,34 2,5 3,5 16,6 l 54,-1 c 16,0 23,-2 27,-4 4,-2 6,-4 7,-9 2,-5 3,-13 6,-32 l 10,-69 c 3,-20 5,-29 4,-33 0,-4 -3,-3 -10,-2 l -26,5 a 99,99 0 0 1 -61,-7 171,171 0 0 1 -45,-26 c -5,-4 -7,-7 -9,-7 -1,0 0,3 -6,9 -6,6 -18,14 -28,19 -10,5 -18,6 -26,6 l -18,1 c -4,1 -4,4 -4,7 l -1,15 a 487,487 0 0 0 14,89 c 4,12 8,19 11,23 3,4 5,5 18,7 l 49,6 c 13,1 16,1 16,-2 1,-3 0,-7 -2,-19 l -5,-44 -1,-35 z"
       id="path3476" />
    <path
       fill="none"
       d="m 1152,654 -4,36 -11,46"
       id="path3478" />
    <path
       fill="#7e7b68"
       d="m 883,999 c 3,-7 9,-19 12,-31 4,-11 6,-21 7,-29 v -14 c 0,-3 0,-3 1,-2 v 6 l 1,8 c 1,2 1,2 7,1 a 335,335 0 0 0 81,-27 711,711 0 0 0 89,-53 c 8,-7 14,-13 20,-24 7,-11 15,-28 19,-37 l 5,-12 v 1 l -2,6 a 295,295 0 0 1 -55,91 c -15,18 -34,41 -54,59 -20,17 -40,29 -59,38 a 565,565 0 0 1 -74,28 c -1,0 -1,-2 2,-9 z"
       id="path3480" />
  </g>
  <path
     fill="#01a959"
     d="m 860,858 c -8,-15 -26,-44 -35,-64 -9,-20 -10,-31 -9,-38 1,-6 4,-9 6,-10 2,-1 2,0 3,3 l 7,16 c 3,6 6,11 9,4 4,-7 8,-27 10,-42 3,-15 4,-25 8,-37 l 19,-37 18,-33 10,-15 c 2,-3 3,-2 1,7 l -13,35 c -3,12 -4,19 -3,24 0,4 0,7 1,4 l 6,-22 c 3,-9 6,-18 13,-30 l 25,-42 c 10,-17 20,-35 30,-48 10,-12 20,-19 31,-28 11,-8 23,-20 35,-30 l 26,-20 c 3,-2 -2,4 -12,13 -10,9 -25,23 -34,35 -10,13 -14,25 -12,26 3,2 12,-7 11,-4 0,3 -9,19 -17,41 l -20,68 c -6,21 -13,34 -20,64 -6,31 -13,77 -16,108 -4,31 -4,47 -14,55 -11,9 -33,10 -44,11 -11,1 -11,1 -20,-14 z"
     filter="url(#s)"
     id="path3484"
     transform="matrix(0.32338071,0,0,0.32338071,-2.7307704,-4.8507107)" />
  <path
     fill="#1f6a41"
     d="m 1198,819 c 10,-12 24,-37 36,-64 a 541,541 0 0 0 41,-215 211,211 0 0 0 -47,-133 c -5,-6 -8,-7 -16,0 -8,7 -21,22 -30,33 -9,11 -13,19 -17,27 -3,7 -4,13 -6,29 l -8,70 c -4,31 -8,68 -9,98 a 395,395 0 0 0 34,151 c 7,15 12,16 22,4 z"
     filter="url(#t)"
     id="path3486"
     transform="matrix(0.32338071,0,0,0.32338071,-2.7307704,-4.8507107)" />
  <path
     fill="#10a452"
     d="m 1178,829 a 560,560 0 0 1 -75,-135 c -10,-28 -18,-61 -24,-83 -5,-23 -9,-36 -10,-57 0,-22 2,-53 5,-72 3,-20 7,-27 11,-31 4,-4 8,-4 19,2 a 171,171 0 0 1 73,82 424,424 0 0 1 29,113 c 3,19 3,36 1,62 a 1334,1334 0 0 1 -16,123 c -2,7 -4,7 -13,-4 z"
     filter="url(#u)"
     id="path3488"
     transform="matrix(0.32338071,0,0,0.32338071,-2.7307704,-4.8507107)" />
  <path
     fill="#50c853"
     d="m 1039,912 4,-11 a 882,882 0 0 0 20,-134 c 1,-22 1,-33 6,-47 6,-14 17,-31 29,-53 12,-22 25,-48 38,-68 13,-19 25,-33 35,-45 a 529,529 0 0 0 29,-40 l -19,5 -40,13 c -13,5 -24,9 -33,16 -8,7 -13,16 -20,28 l -24,44 a 277,277 0 0 0 -34,176 l 4,62 3,44 z"
     filter="url(#v)"
     id="path3490"
     transform="matrix(0.32338071,0,0,0.32338071,-2.7307704,-4.8507107)" />
  <path
     fill="#0daf5e"
     d="m 350,877 c 1,-18 3,-53 -2,-106 -4,-53 -14,-123 -28,-167 -14,-45 -32,-63 -51,-79 -19,-15 -40,-28 -55,-36 -15,-9 -24,-14 -31,-12 -6,2 -10,12 -11,24 -1,13 0,29 9,55 9,26 25,61 45,117 21,57 46,133 59,175 14,42 16,49 22,52 6,2 17,-1 24,-2 l 14,-2 h 3 z"
     filter="url(#w)"
     id="path3492"
     transform="matrix(0.32338071,0,0,0.32338071,-2.7307704,-4.8507107)" />
  <path
     fill="#34a853"
     d="m 282,929 c 8,-11 20,-32 28,-48 7,-15 10,-25 13,-39 l 9,-42 c 2,-10 2,-13 -4,-28 l -24,-53 c -7,-15 -7,-18 -11,-22 l -22,-18 a 3104,3104 0 0 0 -70,-49 c -5,-4 -7,-4 -6,-1 l 6,18 c 3,7 6,16 10,22 l 7,10 c -1,1 -8,-2 -14,-5 l -24,-8 a 619,619 0 0 0 -68,-15 c -7,-1 -9,0 -8,6 1,6 5,18 12,35 l 29,55 23,43 25,50 a 289,289 0 0 0 69,90 c 10,9 13,10 20,-1 z"
     filter="url(#x)"
     id="path3494"
     transform="matrix(0.32338071,0,0,0.32338071,-2.7307704,-4.8507107)" />
  <path
     fill="#53c259"
     d="m 595,920 39,-47 c 11,-14 13,-19 16,-33 l 11,-54 c 4,-16 7,-24 15,-38 l 28,-46 c 6,-13 7,-18 11,-23 l 16,-21 20,-36 c 3,-8 1,-9 -13,-4 l -66,28 c -25,10 -48,21 -58,24 -10,3 -7,-2 -6,-4 a 198,198 0 0 0 -49,45 c -12,18 -20,39 -26,54 -7,16 -11,26 -8,45 3,19 14,46 24,68 9,22 18,38 25,46 6,8 10,7 21,-4 z"
     filter="url(#y)"
     id="path3496"
     transform="matrix(0.32338071,0,0,0.32338071,-2.7307704,-4.8507107)" />
  <path
     fill="#4aba5a"
     d="m 952,925 a 767,767 0 0 0 54,-79 c 6,-16 12,-36 16,-53 5,-16 9,-29 15,-42 5,-12 12,-23 16,-35 5,-12 7,-25 11,-33 4,-8 9,-12 13,-21 4,-9 7,-24 8,-32 1,-9 0,-10 -9,-9 -9,2 -27,6 -46,14 -20,7 -41,18 -56,27 -15,9 -24,15 -28,15 -4,0 -3,-7 -3,-11 1,-4 0,-6 -2,-6 -1,-1 -3,0 -13,8 -9,9 -26,24 -38,43 -11,19 -17,41 -20,56 -4,15 -5,23 -1,40 a 299,299 0 0 0 62,119 c 9,9 13,8 21,-1 z"
     filter="url(#z)"
     id="path3498"
     transform="matrix(0.32338071,0,0,0.32338071,-2.7307704,-4.8507107)" />
  <path
     fill="#60c759"
     d="m 282,929 c 1,-30 2,-60 -2,-94 -5,-33 -16,-70 -26,-97 -11,-26 -21,-43 -29,-52 -7,-9 -12,-10 -28,-15 -15,-5 -42,-13 -60,-17 -18,-4 -27,-5 -32,-4 -4,1 -5,2 3,21 a 2599,2599 0 0 0 98,191 426,426 0 0 0 63,77 c 5,2 8,3 9,1 2,-2 3,-7 4,-11"
     filter="url(#A)"
     id="path3500"
     transform="matrix(0.32338071,0,0,0.32338071,-2.7307704,-4.8507107)" />
  <path
     fill="#30ad59"
     d="m 581,929 c 3,0 6,-2 11,-15 5,-13 10,-38 12,-68 3,-30 1,-65 0,-94 -1,-28 0,-50 1,-63 0,-14 2,-19 2,-22 1,-2 1,-2 -2,0 a 242,242 0 0 0 -61,69 l -17,42 c -3,12 -4,18 -3,26 1,9 3,18 9,35 a 785,785 0 0 0 40,84 c 3,5 5,6 8,6 z"
     filter="url(#B)"
     id="path3502"
     transform="matrix(0.32338071,0,0,0.32338071,-2.7307704,-4.8507107)" />
  <path
     fill="#1e5c41"
     d="m 954,916 c 2,-8 7,-25 7,-44 0,-18 -3,-37 -7,-60 A 829,829 0 0 1 944,678 l -1,-19 c -2,-1 -4,0 -7,2 a 388,388 0 0 0 -46,51 116,116 0 0 0 -23,78 c 1,17 6,35 14,54 8,19 17,39 27,54 9,15 18,25 24,30 6,6 11,7 13,6 3,-1 5,-5 6,-7 z"
     filter="url(#C)"
     id="path3504"
     transform="matrix(0.32338071,0,0,0.32338071,-2.7307704,-4.8507107)" />
  <path
     fill="#0b914b"
     d="m 253,472 c 1,-1 2,-2 13,9 12,11 33,34 53,56 19,22 37,43 48,63 10,20 14,37 16,55 2,19 3,37 0,65 -3,27 -10,63 -17,94 -7,31 -13,56 -18,44 -4,-11 -6,-59 -9,-106 -3,-48 -8,-96 -16,-131 -8,-34 -20,-56 -28,-72 l -21,-35 a 891,891 0 0 1 -21,-42 z"
     filter="url(#D)"
     id="path3506"
     transform="matrix(0.32338071,0,0,0.32338071,-2.7307704,-4.8507107)" />
  <metadata
     id="metadata3569">
    <rdf:RDF>
      <cc:Work
         rdf:about="">
        <dc:title>A wild BIDOOF appeared!</dc:title>
        <dc:creator>
          <cc:Agent>
            <dc:title>Paul Hanzlik</dc:title>
          </cc:Agent>
        </dc:creator>
        <cc:license
           rdf:resource="http://creativecommons.org/publicdomain/zero/1.0/" />
      </cc:Work>
      <cc:License
         rdf:about="http://creativecommons.org/publicdomain/zero/1.0/">
        <cc:permits
           rdf:resource="http://creativecommons.org/ns#Reproduction" />
        <cc:permits
           rdf:resource="http://creativecommons.org/ns#Distribution" />
        <cc:permits
           rdf:resource="http://creativecommons.org/ns#DerivativeWorks" />
      </cc:License>
    </rdf:RDF>
  </metadata>
</svg>
