<svg xmlns="http://www.w3.org/2000/svg" viewBox="0 0 154 144"><path fill="#af7f4f" d="m74 135 2 3a24 24 0 0 0 12 6h6a18 18 0 0 0 11-8l1-3-1-2-1-1 3 2 4 1h5l6-2 4-4a26 26 0 0 0 2-12l1-3h3l6-1 6-4 3-7 1-6-2-6-2-4-1-1h2a13 13 0 0 0 8-8v-5l-2-5-4-4a20 20 0 0 0-10-3h-4l-2 1 1-1 2-1-2-6-4-7-4-6-4-3 3 1h5l9-4c3-2 5-4 6-7l1-6-2-5-2-2-5-3-3-1-6 1-7 4a23 23 0 0 0-7 10l-1 2v2l-4-3a83 83 0 0 0-22-8 48 48 0 0 0-21 0l-9 2-6 3 2-1 2-2 2-4v-4l-1-4-2-3a13 13 0 0 0-12-2 20 20 0 0 0-10 6l-2 5-2 5 1 5 2 3 5 3h2l2-2h1l-2 1-4 4a97 97 0 0 0-13 20l-1 4v1-1l-1-1a12 12 0 0 0-6 1l-4 1-4 4-2 3-1 5a14 14 0 0 0 2 8l3 3 3 1 1 1-2 1a17 17 0 0 0-6 4 10 10 0 0 0-2 7l1 5 3 5 4 3 4 1-1 2v4a16 16 0 0 0 2 9l4 3a13 13 0 0 0 10 0h2l-1 1v2l1 3a25 25 0 0 0 6 8l5 2h7l7-1 5-3 2-3h12z"/><path fill="#f1daa4" d="m34 78-3-4-1-5a26 26 0 0 1 4-19l2-2 3-2h4l4 1 1-1 1-4 3-4 4-3 8-3a30 30 0 0 1 16 3l6 5 3 6 1 2 3-1 3-1h4l3 1 4 5a31 31 0 0 1 3 14 23 23 0 0 1-3 9l-3 3-2 2"/><ellipse cx="44.2" cy="58.1" fill="#120f0a" rx="4.1" ry="5.8" transform="rotate(3)"/><path fill="#544943" d="M83 113c6 0 12-1 16-4 4-2 6-7 7-10l1-8a24 24 0 0 0-10-16l-10-5a70 70 0 0 0-22-4l-12 2-14 6a17 17 0 0 0-7 6l-3 8-1 7 2 5a37 37 0 0 0 11 11l4 1"/><path fill="none" d="m33 100 4 5a21 21 0 0 0 10 4m47-7-1 1-4 3-5 3"/><ellipse cx="104.9" cy="43.6" fill="#110e09" rx="4.1" ry="6.1" transform="matrix(.98405 .1779 -.16291 .98664 0 0)"/><path fill="#a64642" d="m55 86 2-1 5-3 2-3v-2l-2-3-3-1h-4l-3 1-2 3v3l1 3 2 2 2 1z"/><path fill="#edece8" d="M66 134h13l2-2 1-5 1-12 1-5h-6a16 16 0 0 1-10-1 28 28 0 0 1-8-4l-1-1-1 1-5 3-4 1-3 1-1 1v2a81 81 0 0 0 2 15l2 4 3 1a311 311 0 0 0 14 1z"/></svg>