<svg xmlns="http://www.w3.org/2000/svg" viewBox="0 0 1280 1280"><g stroke="#000" stroke-width="7"><path fill="#2d2825" d="M1102 982a390 390 0 0 0-20 39 121 121 0 0 0-6 20c0 3 1 3 3 3l13-3 20-6c5-2 7-3 8-2 2 0 3 1 5 4l10 12c3 4 7 6 10 8 2 1 5 1 7-1l10-6 14-11c4-3 6-5 8-5l8 2a286 286 0 0 0 33 8c2-1 3-2 1-7l-13-26-20-34"/><path fill="#2c2724" d="M668 1125a1362 1362 0 0 0-18 46l1 3c1 1 2 2 5 2l13-1 18-4c4-1 6 0 8 1l9 7 13 15c3 4 5 5 7 5 2 1 4 0 9-4l19-15c5-4 6-4 12-2l23 6c7 2 12 4 16 3 3 0 4-2 4-6 1-4 0-9-2-15-1-7-4-13-7-20a225 225 0 0 0-18-30"/><path fill="#302c29" d="m219 1113-9 24c-2 6-1 11 0 13 0 2 2 2 7 2h16c4 0 5 0 7 3 3 2 6 7 9 11l7 7c2 1 2 0 4-1l7-5 13-10c3-3 6-4 9-4l13 4 20 5 12 1c2-1 3-2 2-8l-3-23-3-11"/><path fill="#9f7342" d="M633 1107a470 470 0 0 0 52 25c10 4 20 5 33 4s30-4 47-12a272 272 0 0 0 75-56l24-35 13-23c3-5 3-5 5-5s6 1 13-1c7-1 17-5 27-9a329 329 0 0 0 77-42c13-9 23-19 29-24 6-6 8-7 11-5 3 1 6 6 10 10l14 17a291 291 0 0 0 48 35c6 3 12 4 20 6h28c9-1 17-3 24-7l21-18a456 456 0 0 0 62-122 663 663 0 0 0 0-189l-14-41a855 855 0 0 0-48-101l-34-49-36-43-18-21-22-19-13-13-10-8-2-2 5 3 10 9 12 10 17 13c5 2 8 2 16 1l28-5a84 84 0 0 0 46-29c6-7 11-16 15-22 4-7 6-12 7-20a192 192 0 0 0-2-54 122 122 0 0 0-22-43l-13-12-16-9c-4-3-7-4-12-5a136 136 0 0 0-42-5c-7 0-12 2-18 4l-24 11c-8 5-16 11-22 17s-10 12-13 17a73 73 0 0 0-9 31l1 7h-2v-11l6-23c3-8 7-15 14-22 6-7 15-13 24-17l22-11c5-1 6-2 7-4l-1-11-4-16a149 149 0 0 0-52-64 149 149 0 0 0-126-6 129 129 0 0 0-48 40c-6 8-9 15-11 22l-5 24v21l1 10c0 2 0 2-1-1a92 92 0 0 1-1-34l5-22c2-6 3-9 2-11s-5-4-8-5l-9-5-12-3a101 101 0 0 0-36 0 71 71 0 0 0-38 19 64 64 0 0 0-21 35l-3 21c1 6 2 14 4 18s5 5 10 5l25 1a417 417 0 0 1 174 46 452 452 0 0 1 65 40l-4-3-16-10a705 705 0 0 0-120-56l-29-6a876 876 0 0 0-116-10c-14-1-22 0-35 1a463 463 0 0 0-115 27 1294 1294 0 0 0-101 43 439 439 0 0 0-51 40l-11 13-6 11"/><path fill="#af7f4f" d="M450 1088a122 122 0 0 0 46 38c13 7 29 12 43 15s25 3 37 0a110 110 0 0 0 66-47c5-9 8-15 7-19 0-4-3-5-7-8l-9-6 20 11c9 4 17 6 25 6a139 139 0 0 0 63-14c11-5 18-13 24-24s12-27 15-40 3-25 3-34c0-8-2-13 1-15 4-2 11 0 22 0 11-1 25-4 37-9 13-4 23-11 33-23 9-11 18-27 22-41 5-14 4-26 2-39-3-13-7-26-12-36-4-10-9-16-13-20s-7-7-5-8l15-2c8-2 19-8 27-16 9-8 15-19 19-29s5-19 3-31c-3-11-9-24-16-34-6-11-13-18-22-23a121 121 0 0 0-61-19c-10 0-20 2-27 4l-12 5 10-5c5-3 10-4 10-10s-5-18-12-33l-24-45c-9-14-17-24-26-33l-20-17c-1-1 6 4 14 6 8 3 16 2 31-2s36-11 53-23c18-12 31-28 38-42s7-27 6-38c-2-11-6-20-10-27-5-8-9-13-16-18-7-6-17-11-25-15-8-3-15-4-24-4s-22 2-36 6a142 142 0 0 0-85 80c-3 7-4 12-3 17s5 9 2 8l-27-17a505 505 0 0 0-130-50 293 293 0 0 0-129-1c-20 4-38 10-53 16l-36 16c-7 4-7 4-5 2l13-7c5-2 10-5 14-10 4-6 7-15 10-25 2-9 4-18 4-26s-2-15-5-23c-4-7-9-13-16-19a80 80 0 0 0-73-14c-11 4-23 10-33 16a125 125 0 0 0-41 51 87 87 0 0 0-3 61c2 9 6 15 14 22l27 17c7 3 8 3 12 0l15-11 5-2-11 8a208 208 0 0 0-53 54 441 441 0 0 0-50 90c-4 12-5 21-5 25-1 4-1 4-2 2v-7c0-2-1-2-4-3a75 75 0 0 0-40 3c-7 2-15 5-23 10-8 6-16 13-22 20a82 82 0 0 0-21 49 83 83 0 0 0 13 48 105 105 0 0 0 36 29c4 2 7 3 5 4l-12 5a102 102 0 0 0-34 26 62 62 0 0 0-14 41 94 94 0 0 0 23 60c7 8 16 13 24 16 9 4 19 5 24 6 4 1 4 2 2 5l-5 12-4 20a96 96 0 0 0 18 55c5 7 12 13 21 18 10 5 22 8 34 9 12 0 23-3 29-5l10-5c1-1 1 0 1 1l-4 2-4 5v10c1 5 3 14 7 22a122 122 0 0 0 38 45c8 6 16 10 29 13 12 3 29 5 45 4 15 0 28-4 41-8l28-20c7-6 10-12 13-14 3-3 6-3 17-2a2901 2901 0 0 0 54 1c2 0 2 0 4 3z"/><path fill="#f1daa4" d="M212 742c-6-6-11-12-16-21a155 155 0 0 1 14-145c6-7 11-12 16-15 6-4 10-6 17-8s16-4 25-4c9 1 18 5 22 6 5 0 5-2 6-7a148 148 0 0 1 21-43c7-8 13-15 26-22a154 154 0 0 1 97-14c16 3 34 9 48 17 15 8 26 18 35 30 10 12 17 25 21 34s4 14 8 14c3 0 10-4 16-8l18-7c7-1 16-2 24-1 8 2 14 5 22 11 7 6 15 15 22 28a185 185 0 0 1 17 84 137 137 0 0 1-18 54 150 150 0 0 1-31 33"/><ellipse cx="288.2" cy="624.5" fill="#120f0a" rx="24.8" ry="35.1" transform="rotate(3)"/><path fill="#544943" d="M510 959c36-5 72-9 95-25 24-16 34-44 40-64s8-33 5-49c-3-17-10-36-20-52-11-16-23-28-40-40-16-12-35-23-58-32a423 423 0 0 0-135-25c-20 1-43 4-71 14-29 9-63 26-85 38s-32 21-41 33c-9 13-16 30-21 46-4 16-5 30-4 42 2 12 5 22 11 32s15 22 27 33c12 12 27 24 39 31 11 6 19 8 27 9"/><path fill="none" d="M205 880c9 10 17 20 25 27 8 8 15 13 25 17 10 5 21 7 33 10m284-43-5 5-22 18-34 20"/><ellipse cx="684.6" cy="531.5" fill="#110e09" rx="24.8" ry="37" transform="matrix(.98412 .17751 -.16326 .98658 0 0)"/><path fill="#a64642" d="M339 793c3 1 4 0 11-4l28-20c8-7 12-13 14-19 3-5 4-9 2-14-1-5-5-10-11-14s-14-6-21-8h-22c-7 1-14 2-19 6s-9 10-11 16c-1 6-2 13-1 19 1 7 4 13 6 18 3 5 7 10 12 13 4 4 9 6 12 7z"/><path fill="#edece8" d="M380 989c0 12 0 38 2 56s5 28 7 34c2 5 3 5 16 6l54-1c16 0 23-2 27-4s6-4 7-9c2-5 3-13 6-32l10-69c3-20 5-29 4-33 0-4-3-3-10-2l-26 5a99 99 0 0 1-61-7 171 171 0 0 1-45-26c-5-4-7-7-9-7-1 0 0 3-6 9s-18 14-28 19-18 6-26 6l-18 1c-4 1-4 4-4 7l-1 15a487 487 0 0 0 14 89c4 12 8 19 11 23s5 5 18 7l49 6c13 1 16 1 16-2 1-3 0-7-2-19l-5-44-1-35 1 7z"/><path fill="none" d="m1152 654-4 36-11 46"/><path fill="#7e7b68" d="M883 999c3-7 9-19 12-31 4-11 6-21 7-29v-14c0-3 0-3 1-2v6l1 8c1 2 1 2 7 1a335 335 0 0 0 81-27 711 711 0 0 0 89-53c8-7 14-13 20-24 7-11 15-28 19-37l5-12v1l-2 6a295 295 0 0 1-55 91c-15 18-34 41-54 59-20 17-40 29-59 38a565 565 0 0 1-74 28c-1 0-1-2 2-9z"/></g></svg>