<svg xmlns="http://www.w3.org/2000/svg" viewBox="0 0 1280 947"><path fill="#1a1a1a" d="M0 0h1280v947H0z"/><path fill="#68ce5a" d="M463 446c26-20 69-46 101-67s53-39 78-52c26-13 55-22 66-22 11-1 3 7-9 24-12 16-29 42-55 73s-61 68-87 101c-26 34-43 63-57 94-13 31-24 64-42 73-19 9-46-6-54-39-9-33 2-83 12-116s21-48 47-69z"/><path fill="#19b95d" d="M1018 15a692 692 0 0 1-1 87c-3 30-9 64-10 88-1 25 3 41 9 95l22 225c8 78 14 141 5 169-8 28-31 23-55-16s-49-110-61-165c-12-56-11-94-11-126l-1-69c0-13 0-15 4-30a1636 1636 0 0 1 99-258z"/><path fill="#09894b" d="M849 214a373 373 0 0 0-23 130c0 25 1 55 10 106 8 51 24 122 37 180s25 102 37 122c13 19 28 15 38-7 11-21 18-59 14-105-3-46-16-101-29-148l-35-128-26-115c-8-27-12-38-15-43s-4-4-8 8z"/><path fill="#205c41" d="M143 698c-27-35-35-57-45-77-10-21-22-39-32-55-10-17-18-32-23-44-4-13-7-22-7-28-1-6 0-9 2-11 3-2 7-3 13-1 5 1 12 3 22 10l37 29 40 37c11 11 18 18 18 15 1-2-4-14-12-29l-28-52a567 567 0 0 1-72-217l-1-26v-10c1-2 3-2 6 1a415 415 0 0 1 58 52c13 13 22 27 34 48 13 21 28 49 40 71l22 43c4 8 6 7 4 0l-10-37-14-59-14-58-18-53a1032 1032 0 0 1-37-189c-1-16 0-20 2-22s3-2 10 4l33 35a1055 1055 0 0 1 82 114l16 36c3 8 5 11 6 20l3 22 1-20 2-33c1-12 0-24-2-38l-7-41a369 369 0 0 1-3-68c1-5 2-8 3-7 2 1 4 4 10 14l27 43c12 19 25 40 33 56 8 15 11 24 15 43 4 20 8 48 12 106s6 145 5 222c-1 76-6 142-15 191-8 49-19 81-36 95-17 13-39 7-73-20-34-28-80-76-107-112Z"/><path fill="#5cc857" d="M499 502c15-42 32-104 45-146 14-43 24-66 30-78 7-12 10-13 15-7s13 20 32 55c20 35 53 91 76 151 23 59 38 121 4 159s-116 53-165 41c-48-13-63-52-64-83-1-30 12-51 27-92z"/><path fill="#49be5a" d="M692 217c3-3 4-3 0 1l-21 24c-11 11-23 27-37 43l-39 41c-10 9-14 14-17 19l-19 34-49 88-51 80c-19 29-43 66-51 73-9 6-2-19 18-55 19-37 51-85 73-122 22-36 35-61 42-74 7-14 9-15 18-24l46-43 61-60 26-25z"/><path fill="#00954f" d="M244 720c-5-41-5-110-8-157s-8-70-10-96a491 491 0 0 1 8-122c2-15 4-31 7-43 3-11 5-17 8-17s6 6 11 21l19 69 23 87c6 23 9 35 11 21 2-13 1-51 1-74 0-24 0-32 3-48s9-38 18-67a2124 2124 0 0 1 57-153c8-18 15-31 19-37 4-7 5-6 5 4s0 30-2 59l-8 95c-2 27-1 41-1 68l-5 115a623 623 0 0 1-88 288c-19 31-32 40-43 39s-20-12-25-52z"/><path fill="#03a257" d="M496 162a602 602 0 0 0-104 197c-17 53-32 120-41 168-10 49-14 81-22 121s-20 89-18 118 17 38 41 12c25-26 58-87 81-135 23-47 36-82 48-132a2202 2202 0 0 0 39-256c-1-27-5-56-7-73l-4-26c-1-4-2-6-13 6z"/><path fill="#46b658" d="M266 756c-17-22-55-109-84-170s-48-95-61-116c-14-20-21-28-36-42a3978 3978 0 0 1-75-79c-3-4-2-4 6 1l44 28 71 41c17 11 18 13 22 19l22 36a814 814 0 0 1 90 215c11 45 17 89 1 67z"/><path fill="#0e994f" d="M516 685c28-26 74-77 108-118s56-72 58-86c3-14-13-10-32-1-18 10-39 26-72 53-33 26-77 62-97 93-19 31-14 56-7 69 6 14 15 15 42-10z"/><path fill="#01a959" d="M857 431a2024 2024 0 0 0-156-90c-25-12-38-17-49-18s-21 3-24 8 0 11 15 39c14 29 40 79 68 129 29 50 61 99 54 100-7 2-52-44-81-75s-42-48-53-58c-10-9-16-11-19-2s-2 29 25 79c28 49 82 128 127 177 44 49 79 68 116 63 36-5 74-34 104-63s53-58 64-81c12-22 14-39 12-52s-8-21-21-30c-14-9-35-19-50-32-16-12-26-26-46-48a1967 1967 0 0 0-88-90c-2 0-2 1 4 13l30 51a590 590 0 0 1 57 147c2 9 2 11-1 3l-15-44c-6-17-12-34-21-52-9-17-22-36-30-47-7-12-9-18-22-27z"/><path fill="#158747" d="M443 682c7-49 27-104 43-140s30-52 45-70c15-17 32-36 46-49s23-19 36-26l39-20c11-4 17-4 17 2 0 7-6 20-17 43l-44 87c-14 30-26 57-34 79-9 22-15 39-7 45 7 6 28-1 45-7 16-7 30-14 42-16 13-3 25-1 30 6 5 6 4 17-24 43-27 25-81 66-120 94-39 29-64 45-80 32-16-12-23-54-17-103z"/><path fill="#166943" d="M136 740a679 679 0 0 0-61-35c-7-3-11-3-13-3-3 1-4 2-4 4l6 11a730 730 0 0 0 84 96l37 29c12 10 22 19 37 29 14 11 33 23 43 29 11 6 13 6 21 5l35-8c12-2 23-2 35 0s25 7 35 11 15 9 20 9c5 1 9-1 17-8a553 553 0 0 0 81-71c12-13 18-21 20-32 3-11 1-24-1-34s-4-16-7-21c-3-6-7-10-12-12-4-2-9-2-15 2-7 3-16 10-24 15s-15 9-18 9-1-5 3-15l11-36c2-12 2-20 0-30-1-10-5-22-8-30l-7-22a325 325 0 0 0-19-38l-5-5c-2-1-3-1-5 1l-6 10-8 18-8 30-8 23-5 15c-1 1-1-3-1-9l-2-25c-1-13-4-32-10-45-5-14-13-22-23-34l-36-41a928 928 0 0 0-58-58c-4-4-4-3-3 1a232 232 0 0 0 24 49c6 7 10 12 9 13s-7-3-14-8l-26-19a715 715 0 0 0-59-37c-7-2-10-2-12 3-2 4-2 12-3 20l-2 26c1 8 3 16 8 30l23 52c11 22 23 48 22 53-1 6-16-9-32-21a367 367 0 0 0-89-50c-8-4-12-5-15-2-2 4-4 11-2 21s7 23 14 34c6 12 14 22 27 42 12 20 31 49 34 61 4 12-7 7-13 5l-12-7z"/><path fill="#1e5f41" d="M814 891c-4 1-6 0-11-2-6-1-16-4-26-12-11-9-22-23-36-43-13-19-29-45-48-79a2824 2824 0 0 1-77-159c-2-11 0-18 8-17 8 0 24 9 36 21 13 11 23 25 27 25 5 1 4-11-2-29l-35-78c-15-37-34-89-44-121-11-31-12-43-13-50-1-8-1-11 3-12 4 0 11 4 26 20a663 663 0 0 1 101 167c13 32 23 65 21 57l-23-94-16-82c-5-18-10-28-20-46l-37-66a860 860 0 0 1-58-125l-13-36c-2-7-2-10 1-9 3 0 8 2 22 15a1524 1524 0 0 1 107 112c13 18 23 36 30 67 6 30 9 73 14 121s11 101 17 133a235 235 0 0 0 14 52l-7-24a692 692 0 0 1-17-110l-11-110-6-80c-2-17-3-24-6-33l-15-35a2280 2280 0 0 1-33-83 1549 1549 0 0 1 73 111c12 24 14 33 20 54l22 79c7 26 13 47 17 68s5 42 7 63a1944 1944 0 0 0 6 53l-1-36-1-29-2-39c-1-14-2-27-5-42l-7-46-2-22a1333 1333 0 0 1 30 107c5 23 7 40 9 61l3 66 3 46c2 6 3-2 5-14l6-45 3-32c1-7 2-7 3-4l3 18a614 614 0 0 1 2 88c-1 20-1 48 30 46 30-1 92-31 137-41 44-10 71 1 86 12 16 11 19 22 18 30-2 8-9 14-14 23-6 9-10 20-21 34-11 13-30 28-45 41-15 12-26 23-36 28s-17 6-28 10c-12 4-26 11-36 20-9 9-15 19-31 25-15 5-41 6-62 6l-47 2c-10 1-15 3-18 4z"/><path fill="#019a54" d="M1098 77c10-12 13-12 16-1s6 32 8 61c3 30 5 66-1 118s-21 119-35 184c-14 66-29 130-45 191s-34 119-53 139-40 3-45-55c-6-57 5-155 14-227 10-73 18-120 26-161a418 418 0 0 1 71-188c16-25 34-49 44-61z"/><path fill="#25a63d" d="M1204 323c-12 9-36 29-55 48s-32 38-42 53c-11 14-19 25-28 49s-19 60-27 108c-8 47-13 105-2 123 12 17 40-7 64-45s43-91 60-140 32-94 40-122c9-29 10-40 10-51s-2-21-4-26l-2-7-14 10z"/><path fill="#2dc165" d="m1184 424-2 4-18 24a775 775 0 0 1-86 78c-10 9-19 16-27 28s-16 30-23 43c-6 14-11 23-9 24 1 1 9-6 16-14l20-24 20-16c6-6 13-11 28-21l51-38c17-12 30-22 34-23 4-2-2 4-11 12-10 9-24 21-40 40a491 491 0 0 0-110 223c-6 23-10 38-27 46-18 8-49 8-59-30a426 426 0 0 1 54-253c11-16 18-23 34-33s41-23 67-35c26-13 53-25 68-31 15-5 18-5 19-4h1z"/><path fill="#187047" d="M837 762c-14-32-40-99-55-156-16-57-22-103-27-146l-10-114c-3-32-6-55-13-80-8-25-21-52-30-74-9-21-14-36-16-44-2-7 0-7 4-2 5 5 12 16 25 36l43 69c11 19 15 28 18 39l15 54 25 102c7 28 8 39 10 57l6 73 11 93c5 35 12 78 13 100 1 23-4 25-19-7z"/><g transform="translate(301 326) scale(.48314)"><path fill="#2d2825" d="M1102 982a390 390 0 0 0-20 39 121 121 0 0 0-6 20c0 3 1 3 3 3l13-3 20-6c5-2 7-3 8-2 2 0 3 1 5 4l10 12c3 4 7 6 10 8 2 1 5 1 7-1l10-6 14-11c4-3 6-5 8-5l8 2a286 286 0 0 0 33 8c2-1 3-2 1-7l-13-26-20-34"/><path fill="#2c2724" d="M668 1125a1362 1362 0 0 0-18 46l1 3c1 1 2 2 5 2l13-1 18-4c4-1 6 0 8 1l9 7 13 15c3 4 5 5 7 5 2 1 4 0 9-4l19-15c5-4 6-4 12-2l23 6c7 2 12 4 16 3 3 0 4-2 4-6 1-4 0-9-2-15-1-7-4-13-7-20a225 225 0 0 0-18-30"/><path fill="#302c29" d="m219 1113-9 24c-2 6-1 11 0 13 0 2 2 2 7 2h16c4 0 5 0 7 3 3 2 6 7 9 11l7 7c2 1 2 0 4-1l7-5 13-10c3-3 6-4 9-4l13 4 20 5 12 1c2-1 3-2 2-8l-3-23-3-11"/><path fill="#9f7342" d="M633 1107a470 470 0 0 0 52 25c10 4 20 5 33 4s30-4 47-12a272 272 0 0 0 75-56l24-35 13-23c3-5 3-5 5-5s6 1 13-1c7-1 17-5 27-9a329 329 0 0 0 77-42c13-9 23-19 29-24 6-6 8-7 11-5 3 1 6 6 10 10l14 17a291 291 0 0 0 48 35c6 3 12 4 20 6h28c9-1 17-3 24-7l21-18a456 456 0 0 0 62-122 663 663 0 0 0 0-189l-14-41a855 855 0 0 0-48-101l-34-49-36-43-18-21-22-19-13-13-10-8-2-2 5 3 10 9 12 10 17 13c5 2 8 2 16 1l28-5a84 84 0 0 0 46-29c6-7 11-16 15-22 4-7 6-12 7-20a192 192 0 0 0-2-54 122 122 0 0 0-22-43l-13-12-16-9c-4-3-7-4-12-5a136 136 0 0 0-42-5c-7 0-12 2-18 4l-24 11c-8 5-16 11-22 17s-10 12-13 17a73 73 0 0 0-9 31l1 7h-2v-11l6-23c3-8 7-15 14-22 6-7 15-13 24-17l22-11c5-1 6-2 7-4l-1-11-4-16a149 149 0 0 0-52-64 149 149 0 0 0-126-6 129 129 0 0 0-48 40c-6 8-9 15-11 22l-5 24v21l1 10c0 2 0 2-1-1a92 92 0 0 1-1-34l5-22c2-6 3-9 2-11s-5-4-8-5l-9-5-12-3a101 101 0 0 0-36 0 71 71 0 0 0-38 19 64 64 0 0 0-21 35l-3 21c1 6 2 14 4 18s5 5 10 5l25 1a417 417 0 0 1 174 46 452 452 0 0 1 65 40l-4-3-16-10a705 705 0 0 0-120-56l-29-6a876 876 0 0 0-116-10c-14-1-22 0-35 1a463 463 0 0 0-115 27 1294 1294 0 0 0-101 43 439 439 0 0 0-51 40l-11 13-6 11"/><path fill="#af7f4f" d="M450 1088a122 122 0 0 0 46 38c13 7 29 12 43 15s25 3 37 0a110 110 0 0 0 66-47c5-9 8-15 7-19 0-4-3-5-7-8l-9-6 20 11c9 4 17 6 25 6a139 139 0 0 0 63-14c11-5 18-13 24-24s12-27 15-40 3-25 3-34c0-8-2-13 1-15 4-2 11 0 22 0 11-1 25-4 37-9 13-4 23-11 33-23 9-11 18-27 22-41 5-14 4-26 2-39-3-13-7-26-12-36-4-10-9-16-13-20s-7-7-5-8l15-2c8-2 19-8 27-16 9-8 15-19 19-29s5-19 3-31c-3-11-9-24-16-34-6-11-13-18-22-23a121 121 0 0 0-61-19c-10 0-20 2-27 4l-12 5 10-5c5-3 10-4 10-10s-5-18-12-33l-24-45c-9-14-17-24-26-33l-20-17c-1-1 6 4 14 6 8 3 16 2 31-2s36-11 53-23c18-12 31-28 38-42s7-27 6-38c-2-11-6-20-10-27-5-8-9-13-16-18-7-6-17-11-25-15-8-3-15-4-24-4s-22 2-36 6a142 142 0 0 0-85 80c-3 7-4 12-3 17s5 9 2 8l-27-17a505 505 0 0 0-130-50 293 293 0 0 0-129-1c-20 4-38 10-53 16l-36 16c-7 4-7 4-5 2l13-7c5-2 10-5 14-10 4-6 7-15 10-25 2-9 4-18 4-26s-2-15-5-23c-4-7-9-13-16-19a80 80 0 0 0-73-14c-11 4-23 10-33 16a125 125 0 0 0-41 51 87 87 0 0 0-3 61c2 9 6 15 14 22l27 17c7 3 8 3 12 0l15-11 5-2-11 8a208 208 0 0 0-53 54 441 441 0 0 0-50 90c-4 12-5 21-5 25-1 4-1 4-2 2v-7c0-2-1-2-4-3a75 75 0 0 0-40 3c-7 2-15 5-23 10-8 6-16 13-22 20a82 82 0 0 0-21 49 83 83 0 0 0 13 48 105 105 0 0 0 36 29c4 2 7 3 5 4l-12 5a102 102 0 0 0-34 26 62 62 0 0 0-14 41 94 94 0 0 0 23 60c7 8 16 13 24 16 9 4 19 5 24 6 4 1 4 2 2 5l-5 12-4 20a96 96 0 0 0 18 55c5 7 12 13 21 18 10 5 22 8 34 9 12 0 23-3 29-5l10-5c1-1 1 0 1 1l-4 2-4 5v10c1 5 3 14 7 22a122 122 0 0 0 38 45c8 6 16 10 29 13 12 3 29 5 45 4 15 0 28-4 41-8l28-20c7-6 10-12 13-14 3-3 6-3 17-2a2901 2901 0 0 0 54 1c2 0 2 0 4 3z"/><path fill="#f1daa4" d="M212 742c-6-6-11-12-16-21a155 155 0 0 1 14-145c6-7 11-12 16-15 6-4 10-6 17-8s16-4 25-4c9 1 18 5 22 6 5 0 5-2 6-7a148 148 0 0 1 21-43c7-8 13-15 26-22a154 154 0 0 1 97-14c16 3 34 9 48 17 15 8 26 18 35 30 10 12 17 25 21 34s4 14 8 14c3 0 10-4 16-8l18-7c7-1 16-2 24-1 8 2 14 5 22 11 7 6 15 15 22 28a185 185 0 0 1 17 84 137 137 0 0 1-18 54 150 150 0 0 1-31 33"/><ellipse cx="288.2" cy="624.5" fill="#120f0a" rx="24.8" ry="35.1" transform="rotate(3)"/><path fill="#544943" d="M510 959c36-5 72-9 95-25 24-16 34-44 40-64s8-33 5-49c-3-17-10-36-20-52-11-16-23-28-40-40-16-12-35-23-58-32a423 423 0 0 0-135-25c-20 1-43 4-71 14-29 9-63 26-85 38s-32 21-41 33c-9 13-16 30-21 46-4 16-5 30-4 42 2 12 5 22 11 32s15 22 27 33c12 12 27 24 39 31 11 6 19 8 27 9"/><path fill="none" d="M205 880c9 10 17 20 25 27 8 8 15 13 25 17 10 5 21 7 33 10m284-43-5 5-22 18-34 20"/><ellipse cx="684.6" cy="531.5" fill="#110e09" rx="24.8" ry="37" transform="matrix(.98412 .17751 -.16326 .98658 0 0)"/><path fill="#a64642" d="M339 793c3 1 4 0 11-4l28-20c8-7 12-13 14-19 3-5 4-9 2-14-1-5-5-10-11-14s-14-6-21-8h-22c-7 1-14 2-19 6s-9 10-11 16c-1 6-2 13-1 19 1 7 4 13 6 18 3 5 7 10 12 13 4 4 9 6 12 7z"/><path fill="#edece8" d="M380 989c0 12 0 38 2 56s5 28 7 34c2 5 3 5 16 6l54-1c16 0 23-2 27-4s6-4 7-9c2-5 3-13 6-32l10-69c3-20 5-29 4-33 0-4-3-3-10-2l-26 5a99 99 0 0 1-61-7 171 171 0 0 1-45-26c-5-4-7-7-9-7-1 0 0 3-6 9s-18 14-28 19-18 6-26 6l-18 1c-4 1-4 4-4 7l-1 15a487 487 0 0 0 14 89c4 12 8 19 11 23s5 5 18 7l49 6c13 1 16 1 16-2 1-3 0-7-2-19l-5-44-1-35 1 7z"/><path fill="none" d="m1152 654-4 36-11 46"/><path fill="#7e7b68" d="M883 999c3-7 9-19 12-31 4-11 6-21 7-29v-14c0-3 0-3 1-2v6l1 8c1 2 1 2 7 1a335 335 0 0 0 81-27 711 711 0 0 0 89-53c8-7 14-13 20-24 7-11 15-28 19-37l5-12v1l-2 6a295 295 0 0 1-55 91c-15 18-34 41-54 59-20 17-40 29-59 38a565 565 0 0 1-74 28c-1 0-1-2 2-9z"/></g><path fill="#01a959" d="M860 858c-8-15-26-44-35-64s-10-31-9-38c1-6 4-9 6-10s2 0 3 3l7 16c3 6 6 11 9 4 4-7 8-27 10-42 3-15 4-25 8-37l19-37 18-33 10-15c2-3 3-2 1 7l-13 35c-3 12-4 19-3 24 0 4 0 7 1 4l6-22c3-9 6-18 13-30l25-42c10-17 20-35 30-48 10-12 20-19 31-28 11-8 23-20 35-30l26-20c3-2-2 4-12 13s-25 23-34 35c-10 13-14 25-12 26 3 2 12-7 11-4 0 3-9 19-17 41l-20 68c-6 21-13 34-20 64-6 31-13 77-16 108-4 31-4 47-14 55-11 9-33 10-44 11s-11 1-20-14z"/><path fill="#1f6a41" d="M1198 819c10-12 24-37 36-64a541 541 0 0 0 41-215 211 211 0 0 0-47-133c-5-6-8-7-16 0s-21 22-30 33-13 19-17 27c-3 7-4 13-6 29l-8 70c-4 31-8 68-9 98a395 395 0 0 0 34 151c7 15 12 16 22 4z"/><path fill="#10a452" d="M1178 829a560 560 0 0 1-75-135c-10-28-18-61-24-83-5-23-9-36-10-57 0-22 2-53 5-72 3-20 7-27 11-31s8-4 19 2a171 171 0 0 1 73 82 424 424 0 0 1 29 113c3 19 3 36 1 62a1334 1334 0 0 1-16 123c-2 7-4 7-13-4z"/><path fill="#50c853" d="m1039 912 4-11a882 882 0 0 0 20-134c1-22 1-33 6-47 6-14 17-31 29-53s25-48 38-68c13-19 25-33 35-45a529 529 0 0 0 29-40l-19 5-40 13c-13 5-24 9-33 16-8 7-13 16-20 28l-24 44a277 277 0 0 0-34 176l4 62 3 44 2 10z"/><path fill="#0daf5e" d="M350 877c1-18 3-53-2-106-4-53-14-123-28-167-14-45-32-63-51-79-19-15-40-28-55-36-15-9-24-14-31-12-6 2-10 12-11 24-1 13 0 29 9 55s25 61 45 117c21 57 46 133 59 175 14 42 16 49 22 52 6 2 17-1 24-2l14-2h3l2-19z"/><path fill="#34a853" d="M282 929c8-11 20-32 28-48 7-15 10-25 13-39l9-42c2-10 2-13-4-28l-24-53c-7-15-7-18-11-22l-22-18a3104 3104 0 0 0-70-49c-5-4-7-4-6-1l6 18c3 7 6 16 10 22l7 10c-1 1-8-2-14-5l-24-8a619 619 0 0 0-68-15c-7-1-9 0-8 6s5 18 12 35l29 55 23 43 25 50a289 289 0 0 0 69 90c10 9 13 10 20-1z"/><path fill="#53c259" d="m595 920 39-47c11-14 13-19 16-33l11-54c4-16 7-24 15-38l28-46c6-13 7-18 11-23l16-21 20-36c3-8 1-9-13-4l-66 28c-25 10-48 21-58 24s-7-2-6-4a198 198 0 0 0-49 45c-12 18-20 39-26 54-7 16-11 26-8 45s14 46 24 68c9 22 18 38 25 46 6 8 10 7 21-4z"/><path fill="#4aba5a" d="M952 925a767 767 0 0 0 54-79c6-16 12-36 16-53 5-16 9-29 15-42 5-12 12-23 16-35 5-12 7-25 11-33s9-12 13-21 7-24 8-32c1-9 0-10-9-9-9 2-27 6-46 14-20 7-41 18-56 27s-24 15-28 15-3-7-3-11c1-4 0-6-2-6-1-1-3 0-13 8-9 9-26 24-38 43-11 19-17 41-20 56-4 15-5 23-1 40a299 299 0 0 0 62 119c9 9 13 8 21-1z"/><path fill="#60c759" d="M282 929c1-30 2-60-2-94-5-33-16-70-26-97-11-26-21-43-29-52-7-9-12-10-28-15-15-5-42-13-60-17s-27-5-32-4c-4 1-5 2 3 21a2599 2599 0 0 0 98 191 426 426 0 0 0 63 77c5 2 8 3 9 1 2-2 3-7 4-11"/><path fill="#30ad59" d="M581 929c3 0 6-2 11-15s10-38 12-68c3-30 1-65 0-94-1-28 0-50 1-63 0-14 2-19 2-22 1-2 1-2-2 0a242 242 0 0 0-61 69l-17 42c-3 12-4 18-3 26 1 9 3 18 9 35a785 785 0 0 0 40 84c3 5 5 6 8 6z"/><path fill="#1e5c41" d="M954 916c2-8 7-25 7-44 0-18-3-37-7-60a829 829 0 0 1-10-134l-1-19c-2-1-4 0-7 2a388 388 0 0 0-46 51 116 116 0 0 0-23 78c1 17 6 35 14 54s17 39 27 54c9 15 18 25 24 30 6 6 11 7 13 6 3-1 5-5 6-7l3-11z"/><path fill="#0b914b" d="M253 472c1-1 2-2 13 9 12 11 33 34 53 56 19 22 37 43 48 63 10 20 14 37 16 55 2 19 3 37 0 65-3 27-10 63-17 94s-13 56-18 44c-4-11-6-59-9-106-3-48-8-96-16-131-8-34-20-56-28-72l-21-35a891 891 0 0 1-21-42z"/></svg>